<?xml version="1.0" encoding="UTF-8"?>
<!DOCTYPE svg PUBLIC "-//W3C//DTD SVG 1.1//EN" "http://www.w3.org/Graphics/SVG/1.1/DTD/svg11.dtd">
<!-- Creator: CorelDRAW -->
<svg xmlns="http://www.w3.org/2000/svg" xml:space="preserve" width="37.5338mm" height="15.3985mm" version="1.1" style="shape-rendering:geometricPrecision; text-rendering:geometricPrecision; image-rendering:optimizeQuality; fill-rule:evenodd; clip-rule:evenodd"
viewBox="0 0 7344.85 3013.27"
 xmlns:xlink="http://www.w3.org/1999/xlink"
 xmlns:xodm="http://www.corel.com/coreldraw/odm/2003">
 <defs>
  <style type="text/css">
   <![CDATA[
    .fil2 {fill:#ED3237}
    .fil0 {fill:#FEFEFE;fill-rule:nonzero}
    .fil3 {fill:#ED3237;fill-rule:nonzero}
    .fil1 {fill:white;fill-rule:nonzero}
   ]]>
  </style>
 </defs>
 <g id="Camada_x0020_1">
  <metadata id="CorelCorpID_0Corel-Layer"/>
  <path class="fil0" d="M1698.85 3001.51l-114.18 -375.52c57.67,-32.95 88.29,-94.16 88.29,-181.28l0 -58.84c0,-135.38 -72.99,-208.37 -207.19,-208.37l-180.11 0 0 824.02 124.79 0 0 -348.44 57.67 0 98.9 348.44 131.83 0zm-237.78 -708.66c60.02,0 87.1,31.8 87.1,101.25l0 42.37c0,69.47 -27.08,101.25 -87.1,101.25l-50.62 0 0 -244.86 50.62 0zm679.21 -115.36l-350.79 0 0 824.02 350.79 0 0 -115.36 -226.02 0 0 -244.86 182.46 0 0 -115.36 -182.46 0 0 -233.08 226.02 0 0 -115.36zm250.73 -11.76c-118.88,0 -185.98,67.1 -185.98,184.81l0 17.65c0,96.53 38.84,164.81 153.03,261.34 83.58,70.62 108.29,111.83 108.29,163.61l0 27.08c0,51.8 -23.54,77.69 -70.62,77.69 -47.08,0 -70.62,-25.89 -70.62,-77.69l0 -58.86 -120.07 11.78 0 55.32c0,117.72 69.45,184.81 193.04,184.81 123.6,0 193.06,-67.08 193.06,-184.81l0 -41.19c0,-98.88 -42.39,-167.16 -156.57,-263.69 -83.58,-70.62 -104.77,-111.83 -104.77,-160.09l0 -10.61c0,-47.08 22.37,-71.8 63.58,-71.8 41.19,0 63.56,24.72 63.56,71.8l0 30.61 120.07 -11.76 0 -21.19c0,-117.71 -67.1,-184.81 -186,-184.81zm610.95 11.76l-390.82 0 0 117.72 133.03 0 0 706.29 124.77 0 0 -706.29 133.03 0 0 -117.72zm295.47 0l-158.92 0 -142.44 824.02 124.77 0 27.08 -187.17 137.72 0 27.08 187.17 127.14 0 -142.44 -824.02zm-78.88 176.59l50.62 347.25 -104.77 0 50.62 -347.25 3.52 0zm685.12 -176.59l-124.79 0 0 635.67c0,60.04 -27.06,82.4 -70.62,82.4 -43.56,0 -70.62,-22.37 -70.62,-82.4l0 -635.67 -120.07 0 0 639.19c0,129.51 74.17,196.59 191.87,196.59 120.07,0 194.24,-67.08 194.24,-196.59l0 -639.19zm540.31 824.02l-114.18 -375.52c57.69,-32.95 88.29,-94.16 88.29,-181.28l0 -58.84c0,-135.38 -72.99,-208.37 -207.19,-208.37l-180.11 0 0 824.02 124.79 0 0 -348.44 57.69 0 98.88 348.44 131.83 0zm-237.78 -708.66c60.04,0 87.1,31.8 87.1,101.25l0 42.37c0,69.47 -27.06,101.25 -87.1,101.25l-50.62 0 0 -244.86 50.62 0zm585.04 -115.36l-158.92 0 -142.44 824.02 124.79 0 27.06 -187.17 137.72 0 27.08 187.17 127.14 0 -142.44 -824.02zm-78.88 176.59l50.62 347.25 -104.77 0 50.62 -347.25 3.52 0zm716.9 -176.59l-117.72 0 0 490.88 -2.35 0 -147.14 -490.88 -138.92 0 0 824.02 117.72 0 0 -546.2 2.35 0 163.63 546.2 122.42 0 0 -824.02zm470.86 0l-390.81 0 0 117.72 133.01 0 0 706.29 124.79 0 0 -706.29 133.01 0 0 -117.72zm430.84 0l-350.79 0 0 824.02 350.79 0 0 -115.36 -226.02 0 0 -244.86 182.46 0 0 -115.36 -182.46 0 0 -233.08 226.02 0 0 -115.36z"/>
  <g>
   <path class="fil1" d="M1767.14 829.67l-54.56 26.38 29.26 17.04 -71.31 5.42 -72.29 6.93 -72.95 8.32 -73.5 9.59 -73.77 10.76 -73.87 11.84 -73.75 12.78 -73.4 13.6 -72.85 14.36 -72.11 14.99 -71.13 15.5 -69.96 15.91 -68.55 16.18 -66.98 16.38 -65.18 16.48 -63.17 16.42 -60.92 16.26 -58.51 16.03 -55.87 15.65 -53.03 15.19 -49.98 14.6 -46.71 13.91 -43.25 13.09 -39.55 12.17 -35.67 11.15 -31.58 10.04 -27.28 8.79 -22.78 7.42 -18.06 5.95 -13.13 4.4 -8 2.68 -2.6 0.9 -19.69 -57.3 2.88 -0.98 8.16 -2.76 13.33 -4.44 18.26 -6.03 22.97 -7.49 27.51 -8.86 31.82 -10.08 35.91 -11.23 39.82 -12.29 43.52 -13.17 46.98 -13.99 50.29 -14.68 53.34 -15.26 56.22 -15.77 58.86 -16.1 61.31 -16.38 63.56 -16.54 65.61 -16.56 67.41 -16.5 69.06 -16.3 70.47 -16.03 71.68 -15.62 72.7 -15.11 73.48 -14.48 74.11 -13.76 74.46 -12.9 74.69 -11.96 74.63 -10.88 74.44 -9.75 74.01 -8.43 73.38 -7.01 72.56 -5.54 29.26 17.04zm-29.26 -17.04c16.69,-1.08 31.13,11.57 32.21,28.26 1.08,16.69 -11.57,31.13 -28.26,32.21l-3.95 -60.47zm467.49 1063.1l-492.8 -1019.68 54.56 -26.38 492.8 1019.68 -25.85 43.44 -28.71 -17.06zm54.56 -26.38c7.28,15.05 0.96,33.19 -14.09,40.47 -15.05,7.28 -33.19,0.96 -40.47,-14.09l54.56 -26.38zm-1870.23 276.62l54.48 26.54 -36.5 -42.11 67.26 -20.68 69.37 -19.65 71.19 -18.69 72.78 -17.73 74.07 -16.77 75.08 -15.91 75.83 -14.97 76.26 -14.17 76.49 -13.29 76.36 -12.48 76 -11.7 75.34 -10.94 74.42 -10.18 73.21 -9.47 71.68 -8.77 69.94 -8.06 67.88 -7.44 65.54 -6.79 62.93 -6.18 60 -5.58 56.85 -5.01 53.38 -4.46 49.65 -3.93 45.63 -3.44 41.33 -2.94 36.71 -2.49 31.88 -2.04 26.71 -1.62 21.29 -1.23 15.6 -0.86 9.57 -0.49 3.33 -0.16 2.86 60.51 -3.13 0.16 -9.41 0.49 -15.4 0.82 -21.09 1.23 -26.52 1.62 -31.68 2.04 -36.52 2.45 -41.09 2.94 -45.36 3.4 -49.41 3.93 -53.11 4.42 -56.57 5.01 -59.72 5.54 -62.62 6.14 -65.18 6.75 -67.53 7.4 -69.55 8.02 -71.29 8.73 -72.78 9.39 -73.95 10.14 -74.83 10.86 -75.46 11.62 -75.81 12.37 -75.83 13.21 -75.59 14.01 -75.08 14.85 -74.26 15.71 -73.17 16.57 -71.8 17.49 -70.09 18.37 -68.16 19.33 -65.89 20.25 -36.5 -42.11zm36.5 42.11c-15.93,5.11 -32.99,-3.66 -38.1,-19.59 -5.11,-15.93 3.66,-32.99 19.59,-38.1l18.51 57.69zm298.48 -591.76l-280.5 576.18 -54.48 -26.54 280.5 -576.18 41.15 -13.64 13.33 40.17zm-54.48 -26.54c7.32,-15.03 25.48,-21.29 40.51,-13.97 15.03,7.32 21.29,25.48 13.97,40.51l-54.48 -26.54zm-626 -358.58l667.15 344.94 -27.83 53.81 -667.15 -344.94 4.07 -55.56 23.76 1.74zm-27.83 53.81c-14.85,-7.67 -20.66,-25.97 -12.99,-40.82 7.67,-14.85 25.97,-20.66 40.82,-12.99l-27.83 53.81z"/>
   <path id="_1" class="fil2" d="M30.29 1218.13c0,0 947.65,-325.27 1709.57,-375.27l492.8 1019.68c0,0 -1118.25,53.07 -1815.71,276.7l280.5 -576.18 -667.15 -344.94z"/>
  </g>
  <g>
   <path class="fil1" d="M5577.68 829.67l29.26 -17.04 72.56 5.54 73.38 7.01 74.01 8.43 74.44 9.75 74.65 10.88 74.67 11.96 74.46 12.9 74.11 13.76 73.48 14.48 72.7 15.11 71.68 15.62 70.47 16.03 69.08 16.3 67.41 16.5 65.59 16.56 63.56 16.54 61.33 16.38 58.86 16.1 56.22 15.77 53.34 15.26 50.27 14.68 47 13.99 43.5 13.17 39.84 12.29 35.91 11.23 31.82 10.08 27.51 8.86 22.97 7.49 18.26 6.03 13.33 4.44 8.16 2.76 2.88 0.98 -19.69 57.3 -2.6 -0.9 -8 -2.68 -13.13 -4.4 -18.06 -5.95 -22.78 -7.42 -27.28 -8.79 -31.58 -10.04 -35.67 -11.15 -39.57 -12.17 -43.23 -13.09 -46.73 -13.91 -49.96 -14.6 -53.03 -15.19 -55.87 -15.65 -58.51 -16.03 -60.94 -16.26 -63.17 -16.42 -65.16 -16.48 -66.98 -16.38 -68.57 -16.18 -69.96 -15.91 -71.13 -15.5 -72.11 -14.99 -72.85 -14.36 -73.4 -13.6 -73.75 -12.78 -73.85 -11.84 -73.79 -10.76 -73.5 -9.59 -72.95 -8.32 -72.29 -6.93 -71.31 -5.42 29.26 -17.04 -54.56 -26.38zm29.26 -17.04l-3.95 60.47c-16.69,-1.08 -29.33,-15.52 -28.26,-32.21 1.08,-16.69 15.52,-29.33 32.21,-28.26zm-467.47 1063.1l-28.71 17.06 -25.85 -43.44 492.78 -1019.68 54.56 26.38 -492.78 1019.68zm-54.56 -26.38l54.56 26.38c-7.28,15.05 -25.42,21.37 -40.47,14.09 -15.05,-7.28 -21.37,-25.42 -14.09,-40.47zm1870.23 276.62l-36.5 42.11 -65.89 -20.25 -68.16 -19.33 -70.11 -18.37 -71.78 -17.49 -73.17 -16.57 -74.26 -15.71 -75.08 -14.85 -75.61 -14.01 -75.81 -13.21 -75.81 -12.37 -75.46 -11.62 -74.85 -10.86 -73.95 -10.14 -72.76 -9.39 -71.31 -8.73 -69.55 -8.02 -67.51 -7.4 -65.2 -6.75 -62.6 -6.14 -59.74 -5.54 -56.55 -5.01 -53.13 -4.42 -49.39 -3.93 -45.36 -3.4 -41.09 -2.94 -36.53 -2.45 -31.66 -2.04 -26.52 -1.62 -21.09 -1.23 -15.4 -0.82 -9.41 -0.49 -3.13 -0.16 2.86 -60.51 3.33 0.16 9.57 0.49 15.6 0.86 21.29 1.23 26.71 1.62 31.86 2.04 36.73 2.49 41.33 2.94 45.63 3.44 49.63 3.93 53.4 4.46 56.83 5.01 60.02 5.58 62.91 6.18 65.55 6.79 67.86 7.44 69.94 8.06 71.7 8.77 73.19 9.47 74.42 10.18 75.36 10.94 76 11.7 76.36 12.48 76.47 13.29 76.28 14.17 75.83 14.97 75.08 15.91 74.07 16.77 72.76 17.73 71.21 18.69 69.37 19.65 67.26 20.68 -36.5 42.11 54.48 -26.54zm-36.5 42.11l18.51 -57.69c15.93,5.11 24.7,22.17 19.59,38.1 -5.11,15.93 -22.17,24.7 -38.1,19.59zm-298.48 -591.76l13.33 -40.17 41.15 13.64 280.5 576.18 -54.48 26.54 -280.5 -576.18zm54.48 -26.54l-54.48 26.54c-7.32,-15.03 -1.06,-33.19 13.97,-40.51 15.03,-7.32 33.19,-1.06 40.51,13.97zm626 -358.58l23.76 -1.74 4.07 55.56 -667.15 344.94 -27.83 -53.81 667.15 -344.94zm27.83 53.81l-27.83 -53.81c14.85,-7.67 33.15,-1.86 40.82,12.99 7.67,14.85 1.86,33.15 -12.99,40.82z"/>
   <path id="_1_0" class="fil2" d="M7314.56 1218.13c0,0 -947.67,-325.27 -1709.59,-375.27l-492.78 1019.68c0,0 1118.23,53.07 1815.71,276.7l-280.5 -576.18 667.15 -344.94z"/>
  </g>
  <g>
   <path class="fil1" d="M6428.12 370.06l-52.48 -30.21 20.74 44.89 -154.81 -27.51 -155.88 -25.67 -156.92 -23.8 -157.94 -21.98 -158.98 -20.12 -160.01 -18.3 -161.03 -16.46 -162.07 -14.68 -163.05 -12.84 -164.06 -11.06 -165.08 -9.28 -166.06 -7.49 -167.08 -5.73 -168.06 -3.97 -169.03 -2.21 -170.03 -0.49 -170.97 1.25 -171.95 2.97 -172.91 4.68 -173.89 6.42 -174.81 8.08 -175.78 9.76 -176.7 11.45 -177.64 13.13 -178.6 14.79 -179.48 16.44 -180.44 18.08 -181.34 19.71 -182.26 21.35 -183.14 22.93 -184.06 24.58 -184.96 26.14 -8.73 -59.96 185.43 -26.22 184.53 -24.62 183.65 -23.01 182.73 -21.39 181.85 -19.78 180.95 -18.12 180.03 -16.48 179.11 -14.83 178.19 -13.17 177.25 -11.49 176.33 -9.8 175.39 -8.12 174.43 -6.42 173.53 -4.72 172.54 -2.97 171.6 -1.25 170.62 0.49 169.66 2.21 168.72 4.01 167.7 5.73 166.72 7.53 165.75 9.31 164.77 11.1 163.75 12.92 162.73 14.72 161.77 16.54 160.72 18.37 159.72 20.23 158.68 22.05 157.66 23.91 156.63 25.79 155.59 27.67 20.74 44.89zm-20.74 -44.89c16.44,3.03 27.32,18.84 24.28,35.28 -3.03,16.44 -18.84,27.32 -35.28,24.28l11 -59.57zm-611.19 1021.07l579.45 -1006.39 52.48 30.21 -579.45 1006.39 -29.04 15.05 -23.44 -45.26zm52.48 30.21c-8.34,14.48 -26.87,19.47 -41.35,11.13 -14.48,-8.34 -19.47,-26.87 -11.13,-41.35l52.48 30.21zm-4368.46 90.25l53.89 -27.71 -30.96 -16.16 135.04 -17.57 135.02 -16.61 135.06 -15.69 135.02 -14.75 135.06 -13.8 135.02 -12.88 135.06 -11.94 135.04 -10.98 135.06 -10.06 135.04 -9.1 135.06 -8.12 135.06 -7.22 135.06 -6.26 135.06 -5.28 135.06 -4.34 135.06 -3.4 135.06 -2.43 135.06 -1.49 135.06 -0.53 135.08 0.43 135.06 1.39 135.08 2.35 135.06 3.33 135.1 4.27 135.08 5.24 135.06 6.2 135.1 7.18 135.08 8.14 135.08 9.12 135.08 10.08 135.1 11.06 135.08 12.03 -5.6 60.31 -134.65 -12 -134.67 -11.02 -134.65 -10.04 -134.65 -9.08 -134.65 -8.14 -134.63 -7.14 -134.67 -6.16 -134.65 -5.24 -134.63 -4.27 -134.63 -3.29 -134.65 -2.35 -134.63 -1.39 -134.65 -0.43 -134.63 0.53 -134.67 1.49 -134.63 2.43 -134.63 3.37 -134.63 4.34 -134.63 5.28 -134.63 6.22 -134.63 7.18 -134.63 8.12 -134.65 9.06 -134.63 10.02 -134.61 10.94 -134.63 11.9 -134.63 12.84 -134.63 13.76 -134.63 14.72 -134.63 15.65 -134.63 16.57 -134.61 17.49 -30.96 -16.16zm30.96 16.16c-16.57,2.21 -31.82,-9.43 -34.03,-26.01 -2.21,-16.57 9.43,-31.82 26.01,-34.03l8.02 60.04zm-541.25 -1141.77l564.18 1097.9 -53.89 27.71 -564.18 -1097.9 22.58 -43.83 31.31 16.12zm-53.89 27.71c-7.65,-14.87 -1.78,-33.15 13.09,-40.8 14.87,-7.65 33.15,-1.78 40.8,13.09l-53.89 27.71z"/>
   <path id="_1_1" class="fil2" d="M942.97 354.96c1980.11,-287.83 3808.97,-304.39 5458.9,0l-579.45 1006.39c-1438.67,-133.28 -2877.08,-100.52 -4315.27,91.5l-564.18 -1097.9z"/>
  </g>
  <g>
   <path class="fil3" d="M3205.79 1398.73l107.71 -199.44 26.26 19.57 14.34 16.75 11.43 18.3 8.2 18.71 5.22 17.94 2.94 17.32 1.04 16.46 -0.49 15.62 -1.68 14.66 -2.66 13.84 -3.5 13.25 -4.34 12.92 -4.95 12.21 -5.62 11.88 -6.32 11.64 -6.81 11.02 -7.51 10.9 -8.28 10.66 -8.73 10.04 -9.55 9.9 -10.37 9.53 -10.98 8.96 -12.02 8.61 -12.64 7.87 -13.4 7.14 -14.4 6.4 -15.4 5.5 -16.05 4.32 -16.73 3.09 -17.34 1.68 -17.77 0.2 -17.96 -1.39 -17.92 -2.97 46.93 -221.75 -1.57 -0.27 -1.92 -0.14 -2.07 0 -2 0.2 -1.78 0.31 -1.49 0.41 -1.31 0.45 -0.78 0.33 -0.29 0.14 -0.04 0.04 0.04 -0.04 0.45 -0.39 0.51 -0.45 0.63 -0.67 0.82 -0.96 0.57 -0.72 0.59 -0.84 0.55 -0.92 0.29 -0.49 0.14 -0.33 0.02 0 -0.27 0.78 -0.33 1.27 -0.39 2.09 -0.35 3.19 -0.14 4.58 0.37 5.85 1.25 7.26 2.49 8.51 4.4 9.94 6.46 10.35 8.28 9.63 26.26 19.57zm-26.26 -19.57c-44.26,-44.24 -44.28,-116 -0.04,-160.27 44.24,-44.26 116,-44.28 160.27,-0.04l-160.23 160.31zm21.53 -823.74l218.7 59.65 0.14 -0.55 -8.32 30.55 -8.53 30.33 -8.65 30.04 -8.73 29.71 -17.2 57.88 -16.75 56.42 -7.93 27.14 -7.61 26.65 -7.18 25.95 -6.71 25.24 -6.18 24.5 -5.6 23.6 -4.91 22.6 -4.21 21.62 -3.46 20.53 -2.68 19.33 -1.88 17.94 -1.04 16.46 -0.27 14.97 0.47 13.19 1.12 11.37 1.59 9.53 1.88 7.48 2.02 5.73 1.92 4.13 1.8 2.94 1.74 2.25 1.96 1.96 2.74 2.15 4.23 2.58 -107.71 199.44 -25.71 -15.77 -23.8 -18.67 -21.25 -21.25 -18.26 -23.23 -15.19 -24.73 -12.13 -25.69 -9.3 -26.2 -6.73 -26.42 -4.48 -26.28 -2.6 -26.28 -0.94 -26.22 0.43 -26.16 1.66 -26.24 2.74 -26.36 3.66 -26.38 4.48 -26.63 5.22 -26.83 5.89 -27.1 6.46 -27.24 6.93 -27.47 7.38 -27.75 7.73 -27.94 8.04 -28.14 8.28 -28.43 16.87 -56.85 17.16 -57.65 8.41 -28.69 8.3 -28.75 8.06 -28.73 7.81 -28.67 0.14 -0.55zm-0.14 0.55c16.16,-60.47 78.29,-96.38 138.76,-80.21 60.47,16.16 96.38,78.29 80.21,138.76l-218.97 -58.55zm-0.47 -329.28l0 -226.68 0.68 0.02 34.13 1.55 33.01 4.4 31.9 7.49 30.61 10.86 28.82 14.32 26.57 17.71 23.7 20.8 20.33 23.23 16.79 24.91 13.27 25.79 10.08 26.14 7.28 26.08 4.93 25.83 2.94 25.46 1.29 25.03 -0.1 24.66 -1.25 24.23 -2.21 23.85 -3.07 23.46 -3.72 22.97 -4.27 22.48 -4.74 22.07 -5.07 21.41 -5.26 20.7 -5.36 19.96 -5.4 19.18 -5.3 18.26 -5.09 17.16 -4.81 15.99 -4.34 14.62 -3.86 13.09 -3.17 11.33 -218.7 -59.65 4.03 -14.3 4.32 -14.77 4.58 -15.32 4.74 -15.79 4.81 -16.26 4.87 -16.65 4.74 -16.95 4.66 -17.26 4.4 -17.34 4.09 -17.3 3.68 -17.1 3.21 -16.89 2.7 -16.52 2.05 -15.83 1.43 -15.09 0.74 -14.17 0.06 -12.99 -0.59 -11.68 -1.13 -10.08 -1.57 -8.34 -1.8 -6.56 -1.78 -4.7 -1.57 -3.13 -1.21 -1.86 -1 -1.15 -1.15 -1.04 -2 -1.35 -3.62 -1.8 -5.95 -2.09 -8.96 -2.09 -12.27 -1.62 -15.81 -0.72 0.68 0.02zm-0.68 -0.02c-62.58,-0.37 -113.01,-51.43 -112.64,-114.01 0.37,-62.58 51.43,-113.01 114.01,-112.64l-1.37 226.64zm-487.87 129.56l222.77 41.92 -202.65 -88.14 9.31 -12.5 9.57 -12.56 9.96 -12.74 10.23 -12.78 10.57 -12.82 10.86 -12.84 11.15 -12.8 11.51 -12.82 11.84 -12.74 12.11 -12.62 12.45 -12.48 12.78 -12.37 13.13 -12.19 13.4 -11.94 13.8 -11.72 14.15 -11.47 14.5 -11.13 14.83 -10.78 15.24 -10.43 15.73 -10.06 16.05 -9.51 16.38 -9 16.99 -8.53 17.34 -7.85 17.77 -7.22 18.36 -6.5 18.67 -5.67 19.2 -4.83 19.59 -3.86 19.96 -2.88 20.39 -1.76 20.63 -0.61 0 226.68 -7.51 0.22 -7.59 0.67 -7.83 1.12 -8 1.59 -8.16 2.05 -8.49 2.58 -8.61 3.05 -8.88 3.62 -9.12 4.13 -9.16 4.62 -9.49 5.21 -9.55 5.67 -9.55 6.11 -9.69 6.63 -9.78 7.1 -9.8 7.53 -9.76 7.91 -9.76 8.32 -9.76 8.69 -9.65 8.94 -9.57 9.28 -9.51 9.55 -9.41 9.8 -9.26 9.96 -9.08 10.12 -9 10.33 -8.83 10.41 -8.61 10.47 -8.43 10.51 -8.2 10.51 -8.04 10.57 -7.79 10.43 -202.65 -88.14zm202.65 88.14c-37.08,50.39 -108.06,61.17 -158.45,24.09 -50.39,-37.08 -61.17,-108.06 -24.09,-158.45l182.54 134.36zm-249.89 -216.02l2.62 -226.64 -1.31 -0.02 19.73 0.51 19.41 1.47 19.08 2.54 18.86 3.64 18.59 4.87 18 6.03 17.55 7.28 16.99 8.59 16.22 9.82 15.44 11.08 14.38 12.19 13.13 13.01 12.07 13.97 10.82 14.66 9.51 15.09 8.38 15.6 7.16 15.85 6.05 15.91 5.03 16.03 4.11 16.1 3.23 16.09 2.49 16.14 1.7 16.07 1.08 16.07 0.43 16.05 -0.1 15.97 -0.67 16.07 -1.12 15.91 -1.59 15.99 -2.04 16.01 -2.43 15.93 -2.82 15.95 -222.77 -41.92 1.92 -10.86 1.6 -10.53 1.29 -10.1 0.96 -9.73 0.68 -9.37 0.35 -8.75 0.06 -8.34 -0.2 -7.71 -0.49 -7.14 -0.68 -6.52 -0.88 -5.81 -1.04 -5.21 -1.13 -4.44 -1.19 -3.82 -1.19 -3.15 -1.1 -2.43 -0.98 -1.82 -0.9 -1.43 -0.68 -0.96 -0.61 -0.7 -0.68 -0.68 -0.61 -0.53 -0.76 -0.55 -1.23 -0.74 -1.68 -0.84 -2.45 -1.02 -3.25 -1.1 -3.99 -1.04 -5.09 -0.98 -6.24 -0.82 -7.32 -0.57 -8.41 -0.2 -1.31 -0.02zm1.31 0.02c-62.58,0 -113.34,-50.76 -113.34,-113.34 0,-62.58 50.76,-113.34 113.34,-113.34l0 226.68zm-497.43 132.75l216.86 65.99 -202.03 -96.9 10.08 -14.5 10.39 -14.48 10.76 -14.46 11.06 -14.36 11.35 -14.27 11.74 -14.27 12 -14.05 12.29 -13.91 12.64 -13.76 12.92 -13.56 13.27 -13.37 13.52 -13.07 13.85 -12.86 14.15 -12.52 14.42 -12.21 14.79 -11.88 15.07 -11.49 15.38 -11.06 15.75 -10.68 16.12 -10.18 16.4 -9.65 16.79 -9.12 17.16 -8.53 17.57 -7.89 17.98 -7.2 18.36 -6.4 18.69 -5.62 19.18 -4.74 19.61 -3.76 19.9 -2.7 20.25 -1.6 20.47 -0.37 -2.62 226.64 -6.81 0.14 -7.06 0.55 -7.42 1.02 -7.67 1.49 -8.06 2 -8.47 2.52 -8.73 3.07 -8.98 3.6 -9.28 4.17 -9.53 4.74 -9.75 5.28 -9.94 5.85 -10.02 6.34 -10.12 6.85 -10.25 7.38 -10.29 7.85 -10.25 8.24 -10.31 8.73 -10.27 9.08 -10.18 9.45 -10.16 9.82 -9.98 10.08 -9.9 10.39 -9.75 10.63 -9.63 10.9 -9.45 11.04 -9.2 11.17 -9.04 11.37 -8.79 11.43 -8.53 11.49 -8.28 11.51 -8 11.53 -202.03 -96.9zm202.03 96.9c-35.28,51.68 -105.83,64.97 -157.51,29.69 -51.68,-35.28 -64.97,-105.83 -29.69,-157.51l187.19 127.82zm-137.23 -288.29l225.94 -18.08 -4.54 42.03 -4.34 14.32 -4.32 14.4 -4.31 14.38 -4.27 14.4 -4.29 14.5 -4.29 14.54 -4.25 14.44 -4.27 14.6 -4.31 14.64 -4.31 14.68 -4.32 14.64 -4.32 14.68 -4.38 14.77 -4.42 14.79 -4.44 14.77 -4.5 14.85 -216.86 -65.99 4.34 -14.34 4.32 -14.38 4.31 -14.4 4.27 -14.38 4.29 -14.52 4.29 -14.52 4.27 -14.52 4.27 -14.52 4.27 -14.6 4.32 -14.72 4.32 -14.66 4.32 -14.66 4.38 -14.79 4.42 -14.77 4.44 -14.79 4.5 -14.83 -4.54 42.03zm4.54 -42.03c18.22,-59.88 81.54,-93.66 141.42,-75.44 59.88,18.22 93.66,81.54 75.44,141.42l-216.86 -65.99zm30.88 90.97l-173.03 -146.41 -8.3 11.11 11.66 -15.6 12.86 -13.48 13.62 -11.41 13.8 -9.33 13.91 -7.67 13.6 -6.05 13.25 -4.77 13.21 -3.78 12.68 -2.8 12.41 -2.04 12.5 -1.39 11.94 -0.72 11.72 -0.23 11.9 0.31 11.43 0.76 11.43 1.21 11.35 1.68 11.17 2.09 11.17 2.6 10.96 3.05 11.17 3.64 11.15 4.27 11.19 4.95 11.41 5.89 11.47 6.91 11.64 8.28 11.9 10.14 11.84 12.39 11.39 15.2 10.2 18.47 7.73 21.53 4.19 24.17 -225.94 18.08 2.82 16.38 4.99 13.97 6.16 11.19 6.11 8.2 5.46 5.73 4.42 3.8 3.19 2.29 2.11 1.27 1.23 0.65 0.31 0.14 -0.43 -0.16 -0.96 -0.31 -1.64 -0.43 -1.9 -0.45 -2.17 -0.41 -2.27 -0.35 -2.35 -0.23 -2.47 -0.18 -2 -0.04 -2.05 0.04 -1.72 0.1 -0.92 0.1 -0.67 0.12 -0.04 -0.02 1 -0.29 1.62 -0.59 2.56 -1.15 3.66 -2.04 4.29 -2.92 5.05 -4.25 5.22 -5.5 5.09 -6.83 -8.3 11.11zm8.3 -11.11c-34.28,52.35 -104.56,67 -156.9,32.72 -52.35,-34.28 -67,-104.56 -32.72,-156.9l189.62 124.18zm-596.53 367.07l-221.13 -49.82 -0.06 0.23 8.69 -31.66 11.6 -30.23 14.4 -28.39 16.89 -26.16 19 -23.8 20.63 -21.31 21.72 -18.86 22.58 -16.69 23.05 -14.72 23.33 -13.03 23.54 -11.66 23.54 -10.49 23.54 -9.63 23.58 -8.94 23.44 -8.41 23.33 -8.1 23.11 -7.87 22.9 -7.83 22.68 -7.89 22.29 -8 21.84 -8.28 21.43 -8.61 20.88 -9.04 20.27 -9.51 19.67 -10.12 19 -10.72 18.26 -11.43 17.59 -12.25 16.89 -13.13 16.22 -14.13 15.54 -15.24 14.97 -16.63 173.03 146.41 -24.25 26.93 -25.28 24.83 -26.05 22.74 -26.63 20.72 -27.02 18.83 -27.3 17.1 -27.34 15.46 -27.26 14.03 -27.08 12.72 -26.75 11.58 -26.32 10.61 -25.83 9.76 -25.18 9.06 -24.36 8.47 -23.6 8.06 -22.64 7.71 -21.56 7.48 -20.39 7.32 -19 7.22 -17.67 7.2 -16.1 7.16 -14.38 7.12 -12.72 7.08 -10.92 6.93 -9.2 6.79 -7.63 6.58 -6.22 6.4 -5.11 6.38 -4.32 6.67 -3.8 7.42 -3.35 8.71 -2.9 10.65 -0.06 0.23zm0.06 -0.23c-13.62,61.09 -74.2,99.57 -135.3,85.95 -61.09,-13.62 -99.57,-74.2 -85.95,-135.3l221.24 49.35zm105.89 86.92l0 226.68 3.66 -0.06 -19.67 0.18 -19.33 -0.7 -19.18 -1.59 -18.81 -2.52 -18.36 -3.37 -18.14 -4.32 -17.75 -5.22 -17.14 -6.09 -16.69 -6.95 -16.28 -7.89 -15.62 -8.71 -14.97 -9.51 -14.46 -10.41 -13.64 -11.15 -12.92 -11.88 -12.17 -12.68 -11.29 -13.25 -10.51 -14.03 -9.55 -14.56 -8.63 -15.07 -7.69 -15.6 -6.67 -15.97 -5.73 -16.42 -4.68 -16.69 -3.68 -16.97 -2.64 -17.2 -1.62 -17.3 -0.59 -17.42 0.39 -17.47 1.43 -17.53 2.43 -17.47 3.42 -17.38 221.13 49.82 -1 5.09 -0.67 4.79 -0.37 4.58 -0.12 4.36 0.16 4.19 0.37 3.99 0.57 3.7 0.78 3.58 0.96 3.42 1.12 3.23 1.35 3.21 1.47 2.99 1.7 2.97 1.88 2.86 2.05 2.72 2.37 2.8 2.54 2.66 2.9 2.64 3.19 2.62 3.42 2.47 3.93 2.5 4.27 2.37 4.62 2.25 5.15 2.13 5.67 2.02 6.01 1.78 6.56 1.55 7.24 1.33 7.69 1.04 8.18 0.68 8.88 0.31 9.41 -0.1 3.66 -0.06zm-3.66 0.06c62.56,-2.02 114.93,47.06 116.94,109.62 2.02,62.56 -47.06,114.93 -109.62,116.94l-7.32 -226.57zm9.24 129.13l49.74 -221.13 1.12 0.25 22.56 7.59 20.72 11.62 16.83 13.87 13.35 15.17 9.71 14.89 6.95 14.11 4.89 13.33 3.39 12.56 2.19 11.88 1.25 11.04 0.55 10.9 -0.08 10.33 -0.61 9.86 -1.12 9.96 -1.62 9.9 -2.07 9.67 -2.64 9.92 -3.15 9.73 -3.6 9.47 -4.38 9.9 -5.09 9.86 -5.97 10.02 -6.93 10.04 -7.93 9.84 -9.22 9.78 -10.74 9.59 -12.39 9.08 -13.78 8.04 -15.52 6.93 -16.71 5.19 -17.38 3.19 -17.91 1.1 0 -226.68 -9.53 0.59 -9.39 1.7 -9.12 2.84 -8.28 3.68 -6.97 4.05 -5.93 4.34 -4.72 4.19 -3.58 3.8 -2.72 3.35 -2.07 3.03 -1.59 2.62 -1.1 2.11 -0.82 1.84 -0.47 1.21 -0.41 1.31 -0.37 1.39 -0.23 1.1 -0.22 1.33 -0.18 1.51 -0.1 1.53 0 2.23 0.16 3.07 0.39 3.52 0.9 4.76 1.59 5.91 2.66 7.18 4.21 8.55 6.54 9.96 9.67 10.98 12.64 10.39 16.07 9 17.44 5.87 1.12 0.25zm-1.12 -0.25c-60.92,-14.34 -98.67,-75.38 -84.32,-136.3 14.34,-60.92 75.38,-98.67 136.3,-84.32l-51.97 220.62zm-147.06 -250.69l220.93 50.72 0.08 -0.37 -0.57 2.6 -0.45 2.41 -0.35 1.94 -0.23 1.78 -0.2 1.64 -0.1 1.04 -0.04 0.86 0 0.45 -0.02 0 0 -0.23 -0.12 -0.92 -0.2 -1.37 -0.29 -1.35 -0.55 -2.04 -0.74 -2.35 -0.98 -2.47 -1.23 -2.66 -1.76 -3.19 -1.8 -2.86 -1.76 -2.37 -2.35 -2.78 -2.37 -2.47 -2.21 -2 -2.17 -1.74 -1.88 -1.29 -1.57 -0.96 -1.1 -0.59 -0.74 -0.33 -0.29 -0.12 0.39 0.12 1.06 0.31 1.53 0.39 -49.74 221.13 -10.8 -2.66 -10.57 -3.09 -10.57 -3.64 -10.59 -4.23 -10.37 -4.79 -10.1 -5.36 -9.94 -6.05 -9.67 -6.69 -9.33 -7.42 -8.83 -7.98 -8.43 -8.73 -7.83 -9.31 -6.73 -9.18 -6.3 -9.86 -5.71 -10.47 -4.72 -10.18 -3.99 -10.18 -3.33 -10.29 -2.66 -10.14 -2.02 -9.69 -1.53 -9.86 -1.02 -9.57 -0.55 -9.04 -0.22 -8.96 0.16 -8.67 0.43 -8.38 0.68 -8.32 0.9 -7.83 1.1 -7.77 1.29 -7.73 1.43 -7.34 1.55 -7.18 0.08 -0.37zm-0.08 0.37c13.8,-61.03 74.5,-99.35 135.53,-85.55 61.03,13.8 99.35,74.5 85.55,135.53l-221.09 -49.98zm590.84 -198.37l-216.39 -67.47 191.19 110.93 -16.81 17.18 -17.24 15.97 -17.49 14.77 -17.71 13.7 -17.85 12.62 -17.85 11.62 -17.61 10.61 -17.47 9.84 -17.3 9.08 -16.89 8.38 -16.57 7.77 -16.05 7.2 -15.48 6.73 -14.91 6.32 -14.32 6.01 -13.52 5.64 -12.66 5.36 -11.86 5.15 -10.84 4.89 -9.71 4.64 -8.67 4.44 -7.48 4.13 -6.12 3.74 -4.83 3.29 -3.46 2.66 -2.35 2.07 -1.37 1.39 -0.49 0.59 0.08 -0.16 0.2 -0.37 0.08 -0.27 -0.06 0.27 -220.93 -50.72 6.36 -22.39 8.53 -21.45 10.53 -20.14 12.25 -18.59 13.44 -16.67 14.17 -14.77 14.72 -13.15 15.09 -11.7 15.09 -10.29 15.05 -9.22 14.91 -8.28 14.77 -7.57 14.72 -7.03 14.52 -6.58 14.29 -6.2 14.19 -6.03 13.99 -5.83 13.7 -5.73 13.54 -5.73 13.33 -5.79 13.03 -5.83 12.66 -5.97 12.39 -6.11 11.98 -6.3 11.68 -6.56 11.35 -6.85 10.84 -7.04 10.41 -7.38 10.08 -7.75 9.71 -8.2 9.3 -8.61 8.98 -9.2 191.19 110.93zm-191.19 -110.93c42.62,-45.83 114.36,-48.41 160.19,-5.79 45.83,42.62 48.41,114.36 5.79,160.19l-165.98 -154.4zm53.19 578.82l-217.8 -62.82 -0.04 0.14 9.76 -33.99 9.63 -33.42 9.43 -32.8 9.33 -32.29 9.18 -31.6 9.02 -31.04 8.9 -30.45 8.73 -29.8 4.32 -14.74 4.29 -14.56 4.27 -14.42 4.23 -14.25 4.19 -14.09 4.17 -13.99 4.15 -13.84 4.09 -13.6 4.07 -13.48 4.05 -13.38 4.01 -13.23 3.99 -13.05 3.93 -12.84 3.93 -12.78 3.89 -12.6 3.87 -12.45 216.39 67.47 -3.76 12.13 -3.82 12.29 -3.82 12.43 -3.89 12.72 -3.91 12.78 -3.93 12.92 -3.97 13.11 -3.99 13.29 -4.05 13.48 -4.07 13.56 -4.09 13.72 -4.15 13.97 -4.19 14.09 -4.19 14.19 -4.25 14.4 -4.29 14.54 -8.69 29.65 -8.83 30.21 -8.94 30.84 -9.14 31.49 -9.26 32.01 -9.43 32.72 -9.59 33.31 -9.73 33.91 -0.04 0.14zm0.04 -0.14c-17.26,60.15 -80.06,94.93 -140.21,77.67 -60.15,-17.26 -94.93,-80.06 -77.67,-140.21l217.88 62.54zm-143.61 440.14l-224.92 28.06 4.77 -49.37 3.46 -10.59 3.62 -11.13 3.72 -11.58 3.82 -11.92 3.95 -12.47 4.09 -12.92 4.13 -13.13 4.25 -13.62 4.36 -13.93 4.4 -14.29 4.52 -14.56 4.54 -14.77 4.62 -15.11 4.7 -15.4 4.74 -15.56 4.79 -15.77 4.81 -15.99 4.87 -16.12 4.89 -16.3 4.91 -16.4 4.91 -16.5 4.95 -16.61 4.97 -16.73 4.97 -16.73 4.91 -16.69 4.93 -16.79 4.93 -16.79 4.89 -16.77 4.89 -16.71 4.81 -16.63 4.81 -16.56 4.74 -16.44 217.8 62.82 -4.81 16.67 -4.85 16.71 -4.89 16.83 -4.93 16.87 -4.93 16.89 -4.97 16.95 -4.97 16.95 -5.03 17.01 -5.01 16.89 -4.97 16.81 -4.99 16.77 -4.99 16.73 -4.99 16.59 -4.93 16.46 -4.91 16.32 -4.89 16.14 -4.83 16.01 -4.81 15.79 -4.74 15.52 -4.7 15.34 -4.66 15.13 -4.56 14.79 -4.52 14.52 -4.4 14.17 -4.32 13.85 -4.29 13.64 -4.17 13.11 -4.03 12.78 -4.01 12.5 -3.87 11.98 -3.74 11.53 -3.62 11.13 4.77 -49.37zm-4.77 49.37c-19.51,59.47 -83.56,91.86 -143.03,72.35 -59.47,-19.51 -91.86,-83.56 -72.35,-143.03l215.37 70.68zm-24.27 -68.71l212.01 80.23 -15.69 28.35 -11.94 14.03 -12.58 11.98 -13.09 10.25 -12.8 8.38 -12.74 7.08 -12.8 6.03 -12.48 4.99 -12.54 4.27 -12.47 3.54 -12.41 2.92 -12.19 2.33 -12.31 1.84 -12.29 1.33 -12.11 0.86 -12.39 0.39 -12.11 -0.08 -12.29 -0.53 -12.31 -1.08 -12.35 -1.57 -12.58 -2.19 -12.41 -2.78 -12.74 -3.56 -12.92 -4.46 -13.15 -5.5 -13.66 -6.97 -13.7 -8.57 -13.68 -10.51 -13.84 -13.37 -12.92 -16.26 -11.11 -19.06 -8.43 -21.7 -4.87 -23.23 224.92 -28.06 -2.8 -13.4 -4.83 -12.47 -6.07 -10.45 -6.54 -8.24 -6.16 -6.01 -4.83 -3.74 -3.8 -2.39 -2.74 -1.41 -1.33 -0.57 -0.31 -0.12 0.61 0.16 1.57 0.35 1.94 0.35 2.6 0.31 3.03 0.25 3.33 0.14 3.66 0.04 3.46 -0.12 3.74 -0.27 3.48 -0.35 3.27 -0.51 3.11 -0.57 2.54 -0.61 2.02 -0.57 1.39 -0.47 0.82 -0.33 -0.2 0.12 -1 0.55 -1.92 1.29 -3.23 2.54 -3.82 3.64 -4.34 5.15 -15.69 28.35zm15.69 -28.35c37.81,-49.86 108.92,-59.65 158.78,-21.84 49.86,37.81 59.65,108.92 21.84,158.78l-180.62 -136.94zm156.39 -545.44l202.73 101.37 6.75 -16.71 -5.19 16.65 -5.38 17.46 -5.54 18.24 -5.71 18.9 -5.81 19.47 -5.97 20.04 -6.03 20.45 -6.11 20.8 -6.16 21.09 -6.18 21.25 -6.2 21.41 -6.22 21.49 -12.35 42.78 -12.13 42.13 -5.95 20.63 -5.81 20.16 -5.73 19.82 -5.6 19.26 -5.4 18.59 -5.24 17.92 -5.05 17.2 -4.87 16.4 -4.6 15.48 -4.42 14.64 -4.19 13.64 -3.91 12.52 -3.7 11.6 -3.48 10.57 -3.29 9.65 -3.33 9.14 -212.01 -80.23 1.49 -4.09 2.23 -6.52 2.74 -8.3 3.15 -9.92 3.56 -11.43 3.87 -12.62 4.15 -13.78 4.48 -14.97 4.72 -15.93 4.93 -16.81 5.17 -17.65 5.36 -18.39 5.52 -19.02 5.66 -19.59 5.81 -20.19 5.95 -20.55 12.13 -42.13 12.39 -42.93 6.26 -21.6 6.24 -21.56 6.26 -21.53 6.24 -21.33 6.18 -21.08 6.14 -20.8 6.05 -20.39 5.97 -19.98 5.87 -19.45 5.73 -18.83 5.62 -18.24 5.46 -17.47 6.75 -16.71zm-6.75 16.71c18.75,-59.7 82.38,-92.89 142.09,-74.15 59.7,18.75 92.89,82.38 74.15,142.09l-216.23 -67.94zm497.55 -541.11l-4.23 226.64 -1.31 -0.04 6.14 -0.23 3.31 -0.59 0.59 -0.14 -2.19 0.98 -4.32 2.33 -6.05 3.82 -7.46 5.34 -8.53 6.81 -9.47 8.24 -10.14 9.55 -10.74 10.78 -11.17 11.9 -11.51 12.92 -11.78 13.84 -11.98 14.72 -12.11 15.44 -12.17 16.1 -12.21 16.71 -12.17 17.18 -12.11 17.63 -12.05 18 -11.84 18.18 -11.68 18.43 -11.51 18.59 -11.19 18.51 -10.88 18.47 -10.59 18.41 -10.23 18.18 -9.78 17.87 -9.37 17.53 -8.9 17.08 -8.41 16.57 -202.73 -101.37 9.55 -18.84 10.04 -19.28 10.51 -19.65 10.96 -19.98 11.37 -20.21 11.72 -20.37 12.13 -20.59 12.48 -20.66 12.76 -20.59 13.05 -20.63 13.4 -20.57 13.58 -20.31 13.84 -20.14 14.09 -19.88 14.29 -19.53 14.48 -19.16 14.66 -18.69 14.83 -18.2 15.03 -17.67 15.22 -17.06 15.44 -16.44 15.67 -15.75 16.05 -15.07 16.44 -14.3 16.95 -13.5 17.67 -12.62 18.57 -11.68 19.74 -10.51 21.29 -9.16 23.4 -7.34 25.42 -4.74 27.47 -1.25 -1.31 -0.04zm1.31 0.04c62.56,1.88 111.74,54.15 109.86,116.71 -1.88,62.56 -54.15,111.74 -116.71,109.86l6.85 -226.57zm128.7 403.29l-216.9 -65.83 -0.76 2.66 2.8 -10.14 2.76 -10.16 2.74 -10.18 2.66 -10.18 2.56 -10.1 2.47 -9.96 2.31 -9.84 2.17 -9.63 1.96 -9.33 1.78 -9.04 1.55 -8.75 1.33 -8.28 1.06 -7.69 0.8 -7.2 0.55 -6.44 0.29 -5.73 0.08 -4.79 -0.12 -3.82 -0.18 -2.58 -0.18 -1.33 0.02 0.02 0.57 1.92 1.25 3.31 2.33 4.58 3.97 6.05 5.54 6.48 7.01 6.24 8.1 5.38 8.14 3.89 7.32 2.35 6.05 1.13 3.74 0.29 4.23 -226.64 20.14 1.43 20.96 3.91 20.82 6.69 20.31 9.69 18.94 12.62 16.59 14.81 13.95 16.38 11.17 17.12 8.43 16.87 6.34 16.65 4.6 16.32 3.07 15.36 2.02 14.91 1.12 14.48 0.39 14.03 -0.2 13.76 -0.68 13.44 -1.1 13.29 -1.47 13.07 -1.76 12.97 -2.04 12.78 -2.25 12.62 -2.45 12.56 -2.62 12.43 -2.76 12.29 -2.86 12.07 -2.94 11.96 -2.99 11.7 -3.01 11.51 -3.01 11.27 -2.99 10.98 -2.95 10.68 -0.76 2.66zm0.76 -2.66c-16.69,60.31 -79.16,95.65 -139.47,78.96 -60.31,-16.69 -95.65,-79.16 -78.96,-139.47l218.43 60.51zm-210.68 732.57l-226.68 0 5.52 -34.89 6.71 -21.04 6.73 -21.43 6.69 -21.78 6.65 -22.11 6.65 -22.39 6.61 -22.68 6.59 -22.97 6.59 -23.27 6.59 -23.44 6.56 -23.64 6.56 -23.83 6.56 -24.03 6.56 -24.21 6.58 -24.34 6.56 -24.42 6.56 -24.48 13.17 -49.31 13.19 -49.37 6.63 -24.73 6.67 -24.77 6.69 -24.66 6.71 -24.64 6.77 -24.6 6.81 -24.5 6.81 -24.32 6.89 -24.3 6.95 -24.17 6.99 -23.97 7.04 -23.8 7.1 -23.64 216.9 65.83 -6.79 22.58 -6.77 22.9 -6.75 23.15 -6.71 23.31 -6.65 23.56 -6.69 23.82 -6.65 23.95 -6.61 24.05 -6.59 24.25 -6.61 24.38 -6.59 24.42 -6.56 24.5 -13.19 49.29 -13.17 49.31 -6.59 24.68 -6.63 24.66 -6.61 24.54 -6.63 24.52 -6.67 24.42 -6.67 24.34 -6.75 24.27 -6.75 24.07 -6.79 23.89 -6.83 23.76 -6.89 23.62 -6.93 23.4 -7.01 23.17 -7.04 22.91 -7.08 22.68 -7.18 22.41 5.52 -34.89zm-5.52 34.89c-19.26,59.55 -83.17,92.19 -142.71,72.93 -59.55,-19.26 -92.19,-83.17 -72.93,-142.71l215.65 69.78zm-25.42 -68.22l210.71 83.56 -8.18 16.54 -12.99 18.22 -13.89 14.54 -14.07 11.47 -13.27 8.77 -12.92 7.1 -12.66 5.83 -12.39 4.81 -12.15 3.99 -12.13 3.39 -12.13 2.82 -11.9 2.27 -11.96 1.86 -12.19 1.43 -12.17 1 -12.15 0.57 -12.15 0.14 -12.27 -0.25 -12.43 -0.76 -12.47 -1.25 -12.68 -1.82 -12.84 -2.49 -13.19 -3.27 -13.58 -4.27 -13.78 -5.4 -14.52 -7.04 -14.95 -9.14 -15.22 -11.8 -15.09 -15.3 -13.74 -19 -11.06 -22.58 -7.03 -24.95 -2.33 -25.63 226.68 0 -1.39 -15.22 -4.29 -15.28 -6.67 -13.66 -7.75 -10.78 -7.65 -7.79 -6.42 -5.03 -4.89 -2.99 -3.33 -1.64 -1.57 -0.63 -0.47 -0.16 0.74 0.18 1.8 0.33 2.54 0.37 3.23 0.31 3.62 0.22 4.05 0.1 4.32 -0.06 4.36 -0.22 4.27 -0.33 4.05 -0.49 4.01 -0.61 3.68 -0.7 2.94 -0.67 2.31 -0.65 1.55 -0.51 0.49 -0.2 -0.72 0.35 -2.07 1.15 -3.56 2.39 -5.62 4.62 -6.89 7.22 -7.44 10.51 -8.18 16.54zm8.18 -16.54c32.19,-53.66 101.84,-71.05 155.49,-38.86 53.66,32.19 71.05,101.84 38.86,155.49l-194.36 -116.63zm186.39 -647.49l200.42 105.87 7.49 -17.67 -8.55 26.4 -8.36 26.3 -8.16 26.12 -7.93 25.89 -7.73 25.71 -7.57 25.54 -7.36 25.22 -7.16 24.89 -6.97 24.6 -6.81 24.3 -6.63 23.95 -6.48 23.52 -6.26 23.03 -6.12 22.7 -5.97 22.17 -5.77 21.72 -11.21 41.92 -10.57 39.55 -5.13 19 -4.99 18.36 -4.87 17.65 -4.76 17.1 -4.7 16.44 -4.58 15.75 -4.54 15.11 -4.44 14.36 -4.46 13.89 -4.5 13.29 -4.54 12.66 -4.66 12.23 -210.71 -83.56 2.74 -7.14 3.05 -8.59 3.33 -9.84 3.56 -11.08 3.82 -12.33 3.99 -13.27 4.15 -14.27 4.34 -15.19 4.48 -16.09 4.68 -16.99 4.83 -17.77 4.97 -18.45 10.53 -39.35 11.17 -41.88 5.85 -21.88 6.05 -22.48 6.2 -23.01 6.42 -23.58 6.59 -24.03 6.79 -24.46 6.97 -24.93 7.2 -25.38 7.4 -25.75 7.63 -26.08 7.81 -26.4 8.04 -26.73 8.28 -27.02 8.51 -27.26 8.71 -27.44 8.98 -27.69 7.49 -17.67zm-7.49 17.67c19.47,-59.47 83.5,-91.91 142.97,-72.44 59.47,19.47 91.91,83.5 72.44,142.97l-215.41 -70.53zm459.51 -453.58l0 226.68 1.94 -0.02 3.21 -0.22 1.33 -0.23 -0.57 0.2 -2.37 0.88 -3.84 1.76 -5.09 2.74 -6.12 3.7 -7.06 4.76 -7.79 5.71 -8.43 6.69 -8.94 7.61 -9.33 8.41 -9.69 9.26 -10.02 10.04 -10.16 10.66 -10.33 11.35 -10.51 12 -10.57 12.52 -10.55 12.97 -10.61 13.48 -10.59 13.95 -10.53 14.29 -10.35 14.5 -10.29 14.89 -10.16 15.13 -9.9 15.19 -9.71 15.4 -9.53 15.56 -9.24 15.54 -8.94 15.54 -8.59 15.44 -8.28 15.4 -200.42 -105.87 9.84 -18.3 10.2 -18.34 10.55 -18.32 10.8 -18.2 11.1 -18.1 11.39 -18.06 11.7 -17.96 11.88 -17.67 12.09 -17.51 12.39 -17.36 12.52 -16.99 12.7 -16.69 12.88 -16.42 13.09 -16.1 13.23 -15.65 13.33 -15.24 13.54 -14.83 13.68 -14.38 13.82 -13.84 13.99 -13.37 14.23 -12.84 14.42 -12.23 14.7 -11.66 15.03 -11.04 15.48 -10.39 16.03 -9.69 16.67 -8.85 17.46 -7.94 18.41 -6.87 19.71 -5.56 21.02 -3.84 22.23 -1.66 1.94 -0.02zm-1.94 0.02c62.58,-1.06 114.2,48.8 115.26,111.38 1.06,62.58 -48.8,114.2 -111.38,115.26l-3.87 -226.64zm115.24 446.36l-216.43 -67.32 -0.08 0.22 3.62 -11.58 3.7 -11.66 3.76 -11.78 3.8 -11.86 3.78 -11.86 3.72 -11.84 3.62 -11.72 3.5 -11.7 3.37 -11.49 3.11 -11.19 2.92 -11.02 2.64 -10.51 2.29 -10.04 1.98 -9.47 1.6 -8.85 1.25 -8.12 0.84 -7.01 0.47 -6.03 0.18 -4.7 -0.06 -3.13 -0.12 -1.49 0.12 0.57 0.67 2.52 1.82 4.72 3.54 6.63 5.6 7.69 7.53 7.55 8.96 6.48 9.14 4.6 7.71 2.5 5.58 1 2.58 0.18 0 -226.68 22.46 1.23 23.38 4.13 23.56 7.63 23.07 11.57 21.06 15.28 17.91 18 14.32 19.78 10.66 20.21 7.42 19.71 4.89 18.88 2.97 18.1 1.49 17.22 0.37 16.63 -0.53 15.97 -1.21 15.54 -1.82 15.34 -2.27 14.85 -2.66 14.75 -3.03 14.6 -3.31 14.42 -3.54 14.23 -3.7 13.95 -3.89 13.93 -3.95 13.6 -4.01 13.35 -4.05 13.17 -4.03 12.78 -3.93 12.41 -3.84 11.98 -3.68 11.55 -3.5 11 -3.23 10.37 -0.08 0.22zm0.08 -0.22c-18.45,59.8 -81.93,93.3 -141.74,74.85 -59.8,-18.45 -93.3,-81.93 -74.85,-141.74l216.59 66.89zm-69.61 741.96l-46.93 221.75 -16.48 -4.81 -32.37 -14.03 -30.49 -17.08 -28.2 -20.06 -25.58 -22.78 -22.7 -25.17 -19.61 -27.04 -16.59 -28.57 -13.66 -29.69 -10.92 -30.43 -8.47 -31.07 -6.24 -31.49 -4.31 -31.98 -2.5 -32.37 -0.92 -32.7 0.49 -33.15 1.8 -33.6 2.99 -33.99 4.09 -34.42 5.09 -34.87 5.99 -35.26 6.83 -35.67 7.63 -36.08 8.34 -36.44 8.94 -36.69 9.51 -37.04 10.04 -37.34 10.47 -37.49 10.84 -37.71 11.17 -37.87 11.43 -37.94 11.64 -37.98 11.76 -38 216.43 67.32 -11.57 37.38 -11.37 37.16 -11.11 36.89 -10.78 36.46 -10.37 36.1 -9.96 35.61 -9.41 35.03 -8.85 34.46 -8.24 33.8 -7.55 32.99 -6.77 32.17 -6.01 31.29 -5.17 30.29 -4.27 29.2 -3.31 28.04 -2.37 26.75 -1.37 25.34 -0.37 23.87 0.65 22.29 1.57 20.51 2.5 18.67 3.31 16.81 4.01 14.75 4.62 12.9 5.01 10.98 5.4 9.31 5.75 7.98 6.22 6.93 6.99 6.22 8.12 5.77 9.75 5.46 11.9 5.15 -16.48 -4.81zm16.48 4.81c58.57,22.05 88.18,87.43 66.12,146 -22.05,58.57 -87.43,88.18 -146,66.12l79.88 -212.12zm300.28 -278.5l-223.79 -35.97 0.06 -0.39 4.87 -26.03 5.97 -25.65 6.99 -25.28 8.02 -24.87 8.98 -24.36 9.88 -23.95 10.76 -23.44 11.58 -22.95 12.41 -22.41 13.11 -21.84 13.89 -21.37 14.58 -20.74 15.2 -20.14 15.85 -19.57 16.46 -18.92 17.04 -18.32 17.61 -17.67 18.08 -16.91 18.61 -16.28 19.16 -15.58 19.47 -14.75 20.04 -14.09 20.45 -13.23 20.76 -12.43 21.27 -11.62 21.6 -10.7 21.96 -9.8 22.31 -8.83 22.6 -7.85 22.99 -6.83 23.27 -5.69 23.48 -4.56 37.57 223.51 -12.37 2.41 -12.62 3.11 -12.86 3.82 -13.13 4.56 -13.27 5.26 -13.38 5.97 -13.46 6.67 -13.4 7.32 -13.52 8.08 -13.4 8.69 -13.23 9.31 -13.21 9.98 -12.9 10.49 -12.7 11.11 -12.45 11.66 -12.09 12.11 -11.76 12.64 -11.37 13.09 -10.96 13.5 -10.51 13.91 -10 14.25 -9.47 14.56 -8.96 14.91 -8.38 15.17 -7.79 15.4 -7.16 15.58 -6.52 15.77 -5.85 15.95 -5.17 15.99 -4.48 16.12 -3.78 16.22 -3.03 16.28 0.06 -0.39zm-0.06 0.39c-10.14,61.76 -68.45,103.6 -130.21,93.46 -61.76,-10.14 -103.6,-68.45 -93.46,-130.21l223.67 36.75zm73.13 145.71l5.56 226.6 -1.21 0.02 -16.75 -0.18 -16.79 -0.92 -16.83 -1.82 -16.63 -2.64 -16.54 -3.52 -16.46 -4.44 -16.26 -5.42 -15.91 -6.32 -15.67 -7.32 -15.34 -8.36 -14.89 -9.33 -14.29 -10.29 -13.72 -11.27 -13.09 -12.27 -12.39 -13.23 -11.43 -13.91 -10.59 -14.68 -9.75 -15.54 -8.81 -16.2 -7.85 -16.83 -6.83 -17.26 -5.89 -17.81 -4.91 -18.2 -4.01 -18.69 -3.03 -19.08 -2.13 -19.33 -1.25 -19.84 -0.35 -20.14 0.53 -20.39 1.37 -20.84 2.23 -21.13 3.05 -21.49 223.79 35.97 -1.92 13.46 -1.33 12.64 -0.78 11.76 -0.25 11.04 0.16 10.16 0.59 9.31 0.96 8.65 1.23 7.73 1.51 7.03 1.7 6.34 1.86 5.6 1.98 5.01 2.02 4.34 2.07 3.8 2.11 3.37 2.21 3.05 2.23 2.76 2.17 2.31 2.29 2.13 2.49 2.04 2.62 1.88 2.8 1.78 3.01 1.62 3.35 1.57 3.7 1.47 3.97 1.31 4.29 1.15 4.76 1.02 5.09 0.8 5.36 0.57 5.83 0.33 6.22 0.06 -1.21 0.02zm1.21 -0.02c62.58,-0.86 114.03,49.18 114.89,111.76 0.86,62.58 -49.18,114.03 -111.76,114.89l-3.13 -226.64zm384.07 -79.94l-223.75 -36.32 210.17 74.58 -6.03 10.41 -6.18 10.51 -6.4 10.63 -6.61 10.7 -6.85 10.8 -7.04 10.8 -7.38 10.9 -7.61 10.84 -7.91 10.84 -8.3 10.9 -8.65 10.86 -8.92 10.61 -9.33 10.61 -9.82 10.51 -10.16 10.25 -10.72 10.16 -11.17 9.88 -11.57 9.53 -12.15 9.28 -12.74 8.92 -13.25 8.49 -13.74 8 -14.27 7.48 -14.81 6.93 -15.4 6.32 -15.81 5.62 -16.28 4.91 -16.79 4.17 -17.08 3.33 -17.36 2.54 -17.79 1.72 -18.02 0.86 -5.56 -226.6 7.3 -0.35 6.83 -0.67 6.56 -0.94 6.12 -1.21 5.79 -1.43 5.64 -1.7 5.48 -1.94 5.26 -2.17 5.26 -2.47 5.22 -2.74 5.21 -3.03 5.19 -3.33 5.11 -3.6 5.22 -3.99 5.3 -4.36 5.26 -4.64 5.21 -4.95 5.34 -5.4 5.28 -5.66 5.34 -6.07 5.4 -6.46 5.28 -6.59 5.28 -6.95 5.32 -7.32 5.3 -7.55 5.26 -7.81 5.28 -8.06 5.24 -8.26 5.21 -8.47 5.22 -8.67 5.21 -8.83 5.17 -8.92 210.17 74.58zm-210.17 -74.58c31.15,-54.28 100.43,-73.03 154.71,-41.88 54.28,31.15 73.03,100.43 41.88,154.71l-196.59 -112.83zm204.84 146.04l0 226.68 0 0 -14.4 -0.45 -14.48 -1.33 -14.4 -2.31 -14.29 -3.23 -14.29 -4.31 -13.78 -5.24 -13.5 -6.24 -13.13 -7.28 -12.33 -8.04 -11.72 -8.86 -11.1 -9.69 -10.31 -10.37 -9.59 -11.04 -8.71 -11.45 -7.85 -11.8 -7.12 -12.29 -6.34 -12.54 -5.54 -12.66 -4.89 -13.01 -4.23 -13.27 -3.52 -13.23 -2.95 -13.54 -2.33 -13.64 -1.78 -13.8 -1.21 -13.99 -0.7 -13.84 -0.22 -14.21 0.33 -14.4 0.78 -14.36 1.27 -14.52 1.72 -14.66 2.17 -14.87 223.75 36.32 -1.23 8.3 -0.94 8 -0.65 7.51 -0.39 7.08 -0.14 6.46 0.1 6.03 0.27 5.81 0.43 4.99 0.61 4.56 0.68 4.05 0.76 3.48 0.82 3.13 0.74 2.39 0.74 1.94 0.68 1.59 0.47 0.96 0.31 0.51 0.18 0.25 -0.14 -0.14 -0.43 -0.51 -0.61 -0.63 -0.84 -0.72 -0.96 -0.72 -1.06 -0.68 -1.35 -0.74 -1.21 -0.57 -1.02 -0.39 -1.06 -0.31 -0.59 -0.14 -0.23 -0.04 0.08 0 0.63 0.02 0 0zm0 0c62.58,0 113.34,50.76 113.34,113.34 0,62.58 -50.76,113.34 -113.34,113.34l0 -226.68zm277.52 -284.12l202.69 101.44 0.94 -1.94 -9.14 18.79 -9.41 18.65 -9.73 18.51 -10.08 18.39 -10.35 18.16 -10.66 17.96 -11.02 17.77 -11.31 17.47 -11.64 17.2 -12.02 16.97 -12.37 16.65 -12.7 16.26 -13.05 15.89 -13.46 15.54 -13.85 15.11 -14.3 14.72 -14.72 14.19 -15.11 13.64 -15.6 13.13 -16.18 12.62 -16.63 11.92 -17.14 11.25 -17.75 10.53 -18.28 9.73 -18.79 8.83 -19.37 7.91 -19.98 6.93 -20.49 5.81 -20.86 4.62 -21.41 3.4 -21.8 2.05 -21.96 0.7 0 -226.68 7.71 -0.23 7.51 -0.72 7.59 -1.21 7.79 -1.72 7.85 -2.21 8 -2.78 8.22 -3.37 8.49 -4.01 8.61 -4.56 8.79 -5.24 9 -5.89 9.12 -6.56 9.18 -7.14 9.33 -7.89 9.47 -8.55 9.43 -9.1 9.45 -9.71 9.43 -10.29 9.43 -10.88 9.37 -11.43 9.33 -11.96 9.2 -12.35 9.08 -12.86 9.02 -13.33 8.85 -13.68 8.71 -14.05 8.55 -14.4 8.39 -14.72 8.2 -14.99 8 -15.22 7.85 -15.48 7.61 -15.65 0.94 -1.94zm-0.94 1.94c26.93,-56.48 94.59,-80.43 151.07,-53.5 56.48,26.93 80.43,94.59 53.5,151.07l-204.57 -97.57zm147.8 58.31l-209.42 -86.69 0.08 -0.2 11.9 -22 16.56 -19.55 19.57 -15.22 20 -10.16 18.08 -5.69 16.57 -2.76 14.21 -0.68 12.48 0.61 11.13 1.49 9.75 1.98 8.96 2.39 8.36 2.72 8 3.07 7.22 3.13 7.08 3.42 7.04 3.78 6.48 3.84 6.58 4.23 6.89 4.87 6.63 5.17 6.44 5.52 6.32 5.97 6.75 7.12 6.81 8.26 6.59 9.24 6.71 11.39 6.14 13.4 5.26 16.34 3.27 19.41 0.08 21.37 -4.09 23.05 -8.61 22.39 -202.69 -101.44 -7.12 18.51 -3.39 19.02 0.04 17.26 2.56 15.19 3.86 12.07 4.19 9.14 4.13 7.04 3.54 4.97 3.29 3.99 2.76 2.94 1.98 1.86 1.78 1.53 1.66 1.29 1.68 1.19 1.13 0.74 0.92 0.55 1.37 0.72 1.33 0.65 1.47 0.63 2.29 0.88 2.68 0.88 3.44 0.9 4.34 0.88 5.97 0.78 7.55 0.37 9.59 -0.49 12.31 -2.05 14.17 -4.48 16.56 -8.43 16.59 -12.92 14.09 -16.65 10.02 -18.51 0.08 -0.2zm-0.08 0.2c-24.03,57.79 -90.39,85.12 -148.17,61.09 -57.79,-24.03 -85.12,-90.39 -61.09,-148.17l209.27 87.08zm-343.12 333.65l0 -226.68 -3.05 0.06 -5.73 0.43 -3.72 0.65 -2.29 0.61 -0.61 0.2 0.9 -0.39 1.78 -0.88 2.62 -1.47 3.48 -2.15 4.17 -2.84 4.64 -3.4 5.09 -4.01 5.46 -4.56 5.71 -5.11 5.99 -5.66 6.2 -6.16 6.36 -6.65 6.48 -7.1 6.52 -7.49 6.58 -7.96 6.63 -8.34 6.56 -8.65 6.48 -8.94 6.48 -9.41 6.4 -9.65 6.2 -9.86 6.12 -10.2 5.91 -10.33 5.69 -10.53 5.56 -10.8 5.3 -10.96 5.07 -11.08 4.79 -11.19 209.42 86.69 -6.95 16.2 -7.26 15.93 -7.57 15.58 -7.83 15.3 -8.16 15.07 -8.41 14.72 -8.59 14.3 -8.86 14.09 -9.02 13.64 -9.18 13.29 -9.45 13.05 -9.57 12.64 -9.69 12.21 -9.82 11.84 -10 11.49 -10.08 11.1 -10.23 10.68 -10.31 10.27 -10.49 9.88 -10.65 9.49 -10.78 9.06 -10.92 8.59 -11.17 8.18 -11.37 7.69 -11.78 7.32 -12.25 6.83 -12.74 6.28 -13.23 5.6 -14.23 5.01 -15.44 4.13 -16.36 2.92 -17.75 1.41 -3.05 0.06zm3.05 -0.06c-62.56,1.68 -114.65,-47.67 -116.34,-110.23 -1.68,-62.56 47.67,-114.65 110.23,-116.34l6.11 226.57zm-144.96 -257.21l222.93 40.94 -0.78 3.89 -1.33 6.24 -1.17 5.93 -1 5.5 -0.82 4.95 -0.67 4.64 -0.55 4.21 -0.37 3.7 -0.27 3.21 -0.14 2.5 -0.06 2.11 0 1.53 0.02 0.67 0.04 0.22 -0.08 -0.49 -0.22 -1.27 -0.45 -1.98 -0.76 -2.78 -1.35 -3.8 -1.9 -4.4 -2.6 -4.95 -3.5 -5.52 -4.03 -5.28 -5.26 -5.71 -6.3 -5.66 -6.69 -4.87 -6.85 -4.05 -6.81 -3.19 -6.87 -2.47 -5.93 -1.59 -5.66 -1 -4.91 -0.53 -3.74 -0.12 0 226.68 -10.86 -0.35 -11.72 -1.19 -12.07 -2.17 -12.07 -3.19 -12.62 -4.54 -12.25 -5.73 -11.98 -7.06 -11.47 -8.36 -10.72 -9.61 -9.33 -10.18 -7.79 -10.21 -6.95 -10.92 -5.66 -10.82 -4.68 -10.78 -3.74 -10.68 -2.84 -10.14 -2.17 -9.84 -1.62 -9.61 -1.13 -9.37 -0.7 -9.14 -0.37 -9.2 -0.04 -8.85 0.22 -8.77 0.49 -8.88 0.7 -8.73 0.92 -8.71 1.1 -8.75 1.29 -8.83 1.49 -9.06 1.66 -9.02 1.8 -9.14 2 -9.33 -0.78 3.89zm0.78 -3.89c13.44,-61.11 73.93,-99.76 135.04,-86.32 61.11,13.44 99.76,73.93 86.32,135.04l-221.36 -48.73zm63.6 -203.1l222.69 -42.35 -2.49 52.66 -3.64 12.6 -3.86 13.23 -4.01 13.85 -4.19 14.54 -2.13 7.36 -2.07 7.32 -2.15 7.57 -2.17 7.75 -2.19 7.77 -2.15 7.77 -2.13 7.73 -2.13 7.96 -2.17 7.94 -2.05 7.83 -2.11 8.08 -2.05 7.87 -2 7.87 -2 7.98 -1.92 7.77 -1.86 7.77 -1.84 7.79 -1.78 7.79 -1.7 7.48 -1.6 7.46 -1.59 7.42 -1.45 7.16 -1.41 7.1 -1.29 6.87 -222.93 -40.94 1.64 -8.79 1.72 -8.75 1.8 -8.85 1.86 -8.75 1.92 -8.86 2.02 -8.96 2.02 -8.73 2.07 -8.85 2.13 -8.86 2.19 -8.94 2.19 -8.69 2.23 -8.85 2.29 -8.81 2.23 -8.51 2.33 -8.73 2.29 -8.53 2.29 -8.39 2.33 -8.47 2.31 -8.32 2.27 -8.12 2.25 -7.98 2.23 -7.93 2.27 -7.94 2.21 -7.67 4.23 -14.66 4.09 -14.09 3.86 -13.31 3.6 -12.33 -2.49 52.66zm2.49 -52.66c17.38,-60.11 80.23,-94.75 140.35,-77.37 60.11,17.38 94.75,80.23 77.37,140.35l-217.72 -62.97zm56.02 28.45l-219.05 -58.2 20.27 -40.76 14.29 -15.69 15.22 -12.64 15.6 -9.92 15.36 -7.48 14.81 -5.48 14.05 -3.86 13.25 -2.58 12.6 -1.64 12.37 -0.9 12.17 -0.22 11.39 0.31 11.17 0.76 11.17 1.23 10.82 1.59 10.53 1.94 10.35 2.25 10.35 2.6 10.29 2.95 10.14 3.31 9.8 3.56 9.75 3.91 9.92 4.42 9.82 4.89 9.84 5.46 9.82 6.12 10.06 7.08 10.39 8.45 10.45 10 10.53 12.17 10.39 15.32 9.41 19.33 6.83 23.54 -222.69 42.35 4.87 16.89 6.16 12.72 5.89 8.75 4.89 5.67 3.76 3.62 2.68 2.19 1.41 1.02 0.35 0.22 -0.41 -0.22 -1.1 -0.55 -1.59 -0.7 -2.35 -0.94 -2.68 -0.98 -2.74 -0.88 -2.9 -0.84 -3.03 -0.76 -3.19 -0.68 -3.09 -0.57 -2.72 -0.41 -2.33 -0.25 -2.13 -0.14 -1.68 -0.08 -0.55 0.02 0.04 0 0.78 -0.12 1.98 -0.39 3.4 -0.96 4.91 -1.84 6.24 -3.05 7.38 -4.72 7.94 -6.61 8.02 -8.85 20.27 -40.76zm-20.27 40.76c-38.57,49.27 -109.84,57.96 -159.11,19.39 -49.27,-38.57 -57.96,-109.84 -19.39,-159.11l178.51 139.72zm-478.94 402.64l160.31 -160.23 -0.84 -0.86 -7.04 -5.75 -10.43 -5.79 -12.29 -3.99 -11.78 -1.45 -9.51 0.53 -6.2 1.31 -2.72 0.96 0.14 -0.12 2.64 -1.66 4.42 -3.29 5.83 -4.97 6.93 -6.54 7.65 -8 8.32 -9.45 8.71 -10.7 9.08 -11.92 9.26 -12.97 9.37 -13.91 9.35 -14.72 9.35 -15.56 9.26 -16.2 9.04 -16.75 8.86 -17.26 8.57 -17.63 8.3 -18 7.93 -18.18 7.51 -18.28 7.06 -18.36 6.61 -18.34 6.07 -18.12 5.48 -17.83 4.93 -17.57 219.05 58.2 -6.5 23.25 -7.16 23.31 -7.79 23.21 -8.3 23.07 -8.86 22.97 -9.35 22.82 -9.84 22.56 -10.25 22.27 -10.68 21.98 -11.1 21.6 -11.47 21.17 -11.8 20.66 -12.09 20.14 -12.48 19.65 -12.78 19 -13.09 18.3 -13.42 17.67 -13.84 16.93 -14.27 16.22 -14.85 15.48 -15.46 14.64 -16.32 13.78 -17.46 12.88 -18.88 11.8 -20.92 10.49 -23.31 8.55 -26.2 5.81 -28.88 1.7 -30.41 -3.64 -30.14 -9.75 -27.38 -15.22 -23.09 -19.02 -0.84 -0.86zm0.84 0.86c-44.71,-43.79 -45.46,-115.57 -1.66,-160.29 43.79,-44.71 115.57,-45.46 160.29,-1.66l-158.62 161.95zm0.43 -393l205.16 96.36 -0.29 0.63 -3.82 8.2 -3.58 8.16 -3.4 8.22 -3.23 8.22 -2.97 8.06 -2.76 8 -2.56 7.96 -2.35 7.87 -2.13 7.67 -1.84 7.36 -1.68 7.4 -1.49 7.18 -1.23 6.73 -1 6.56 -0.84 6.42 -0.61 5.83 -0.41 5.46 -0.23 5.21 -0.06 4.76 0.06 4.15 0.2 3.44 0.29 3.17 0.31 2.41 0.27 1.57 0.22 0.94 0 0 -0.29 -0.8 -0.61 -1.43 -1.27 -2.41 -2.07 -3.31 -2.86 -3.82 -3.87 -4.25 -160.31 160.23 -10.88 -12 -9.28 -12.39 -7.94 -12.74 -6.56 -12.66 -5.34 -12.43 -4.48 -12.54 -3.6 -12.45 -2.84 -12.21 -2.23 -12.25 -1.6 -12.03 -1.12 -11.82 -0.67 -12.13 -0.22 -11.98 0.18 -11.88 0.55 -11.9 0.88 -12.07 1.27 -12.13 1.55 -11.94 1.9 -12.15 2.21 -12.29 2.5 -12.15 2.78 -12.21 3.17 -12.48 3.42 -12.37 3.68 -12.33 4.01 -12.43 4.29 -12.47 4.62 -12.52 4.87 -12.45 5.17 -12.45 5.5 -12.5 5.77 -12.43 -0.29 0.63zm0.29 -0.63c26.95,-56.48 94.61,-80.43 151.09,-53.48 56.48,26.95 80.43,94.61 53.48,151.09l-204.57 -97.61zm331.2 -275.02l29.27 224.77 0.86 -0.12 -4.07 0.67 -4.29 0.9 -4.44 1.12 -4.54 1.35 -4.64 1.6 -4.76 1.86 -4.87 2.11 -5.01 2.41 -5.11 2.68 -5.24 3.01 -5.36 3.31 -5.36 3.56 -5.38 3.84 -5.4 4.09 -5.34 4.31 -5.5 4.76 -5.42 4.91 -5.38 5.22 -5.4 5.46 -5.28 5.69 -5.34 6.05 -5.17 6.18 -5.03 6.32 -4.95 6.58 -4.89 6.85 -4.79 7.04 -4.66 7.24 -4.44 7.26 -4.34 7.55 -4.23 7.73 -3.97 7.73 -3.86 7.96 -205.16 -96.36 6.2 -12.82 6.56 -12.74 6.77 -12.39 7.04 -12.25 7.42 -12.15 7.59 -11.78 7.85 -11.58 8.14 -11.39 8.43 -11.19 8.75 -11.02 8.96 -10.65 9.1 -10.31 9.47 -10.2 9.67 -9.84 9.96 -9.61 10.23 -9.3 10.39 -8.94 10.82 -8.77 11 -8.36 11.25 -7.98 11.51 -7.63 11.7 -7.22 11.98 -6.85 12.31 -6.48 12.56 -6.05 12.86 -5.6 13.13 -5.11 13.37 -4.58 13.54 -4.05 13.8 -3.5 13.99 -2.9 14.29 -2.31 0.86 -0.12zm-0.86 0.12c61.99,-8.55 119.21,34.77 127.76,96.77 8.55,61.99 -34.77,119.21 -96.77,127.76l-31 -224.53zm308.09 80.27l-101.44 202.69 -20.33 -13.05 -4.01 -3.15 -4.19 -3.05 -4.27 -2.99 -4.4 -2.86 -4.7 -2.92 -4.58 -2.68 -4.68 -2.54 -4.85 -2.52 -4.93 -2.37 -5.09 -2.31 -4.97 -2.11 -5.13 -2.02 -5.28 -1.96 -5.21 -1.76 -5.38 -1.7 -5.26 -1.53 -5.3 -1.39 -5.42 -1.31 -5.17 -1.1 -5.26 -1 -5.38 -0.88 -5.22 -0.74 -5.17 -0.61 -5.13 -0.47 -5.03 -0.33 -4.97 -0.22 -4.72 -0.08 -4.77 0.04 -4.77 0.16 -4.52 0.27 -4.21 0.37 -4.21 0.49 -29.27 -224.77 10.47 -1.23 10.66 -0.92 10.51 -0.63 10.41 -0.35 10.57 -0.12 10.7 0.2 10.61 0.45 10.59 0.72 10.61 0.98 10.61 1.23 10.59 1.49 10.47 1.74 10.59 1.98 10.68 2.31 10.39 2.49 10.51 2.76 10.47 3.05 10.31 3.23 10.41 3.56 10.21 3.76 10.29 4.05 10.29 4.38 10.02 4.54 10.06 4.87 9.94 5.11 9.92 5.44 9.82 5.73 9.47 5.85 9.57 6.26 9.43 6.56 9.24 6.81 9.14 7.14 -20.33 -13.05zm20.33 13.05c48.75,39.24 56.48,110.6 17.24,159.35 -39.24,48.75 -110.6,56.48 -159.35,17.24l142.11 -176.59zm-72.42 76.4l161.72 -158.86 15.22 19.33 10.88 21.7 6.28 21.39 2.49 19.47 -0.08 17.34 -1.9 15.54 -2.97 13.48 -3.58 11.68 -3.99 10.51 -4.46 9.94 -4.74 9.22 -4.81 8.38 -4.99 7.96 -5.4 7.89 -5.48 7.42 -5.6 7.03 -5.85 6.89 -6.14 6.73 -6.36 6.56 -6.61 6.32 -6.89 6.14 -7.24 5.99 -7.67 5.83 -8.47 5.83 -9.14 5.62 -9.76 5.26 -11.45 5.19 -12.88 4.6 -14.64 3.74 -17.81 2.39 -20.76 -0.2 -22.64 -4.05 -23.62 -9 101.44 -202.69 -18.3 -7.01 -16.89 -3.03 -14.58 -0.16 -11.31 1.49 -7.83 1.98 -5.75 2.05 -4.17 1.86 -2.29 1.23 -1.55 0.96 -0.84 0.55 0 0 0.43 -0.35 0.7 -0.63 0.86 -0.84 0.96 -0.96 0.94 -1.06 1 -1.17 0.94 -1.19 0.7 -0.92 0.39 -0.57 0.33 -0.53 0.04 -0.04 -0.43 0.84 -0.74 1.68 -0.94 2.45 -1.15 3.86 -1.29 5.89 -1 8.34 -0.04 10.49 1.7 13.09 4.56 15.48 8.22 16.34 15.22 19.33zm-15.22 -19.33c-33.19,-53.05 -17.06,-122.99 35.99,-156.18 53.05,-33.19 122.99,-17.06 156.18,35.99l-192.16 120.19zm-255.55 -44.75l-37.57 -223.51 0.16 -0.04 13.35 -2.05 13.62 -1.76 13.87 -1.47 13.91 -1.12 14.11 -0.86 14.5 -0.53 14.5 -0.2 14.6 0.14 14.87 0.45 14.99 0.8 15.05 1.15 15.19 1.53 15.3 1.9 15.3 2.29 15.38 2.68 15.54 3.13 15.48 3.56 15.46 3.99 15.46 4.46 15.44 4.95 15.4 5.46 15.34 6.01 15.3 6.58 15.15 7.14 14.91 7.71 14.83 8.36 14.64 9.04 14.29 9.63 14.09 10.37 13.78 11.11 13.33 11.8 12.93 12.52 -161.72 158.86 -5.22 -5.09 -5.62 -4.95 -5.87 -4.74 -6.22 -4.58 -6.69 -4.5 -6.89 -4.27 -7.28 -4.09 -7.67 -3.95 -7.91 -3.74 -8.18 -3.52 -8.49 -3.31 -8.75 -3.11 -8.98 -2.88 -9.2 -2.66 -9.39 -2.43 -9.53 -2.19 -9.55 -1.92 -9.78 -1.7 -9.86 -1.47 -9.82 -1.23 -9.86 -0.98 -9.88 -0.76 -9.75 -0.53 -9.67 -0.29 -9.71 -0.06 -9.45 0.12 -9.14 0.33 -9.14 0.55 -8.9 0.72 -8.43 0.88 -8.18 1.06 -7.91 1.23 0.16 -0.04zm-0.16 0.04c-61.74,10.27 -120.15,-31.43 -130.42,-93.17 -10.27,-61.74 31.43,-120.15 93.17,-130.42l37.26 223.59zm700.75 -113.65l-173.57 145.79 196 -42.64 -3.03 10.88 -3.11 10.92 -3.21 11.04 -3.29 11.1 -3.4 11.23 -3.46 11.11 -3.5 11.21 -3.7 11.45 -3.74 11.39 -3.84 11.43 -3.95 11.57 -4.05 11.62 -4.17 11.74 -4.27 11.7 -4.34 11.72 -4.52 11.96 -4.6 11.96 -4.7 11.96 -4.85 12.11 -4.97 12.13 -5.11 12.29 -5.21 12.27 -5.32 12.33 -5.52 12.5 -5.64 12.54 -5.75 12.56 -5.85 12.58 -6.03 12.72 -6.2 12.88 -6.36 12.9 -6.44 12.92 -6.61 13.03 -201.71 -103.44 5.91 -11.62 5.81 -11.58 5.62 -11.45 5.46 -11.31 5.36 -11.35 5.26 -11.29 5.13 -11.19 4.97 -11.06 4.81 -10.94 4.74 -11 4.66 -10.9 4.48 -10.76 4.38 -10.76 4.27 -10.66 4.19 -10.66 4.09 -10.55 3.93 -10.43 3.87 -10.51 3.8 -10.41 3.66 -10.25 3.58 -10.25 3.48 -10.2 3.4 -10.21 3.35 -10.14 3.19 -9.96 3.19 -10.12 3.11 -10.06 2.97 -9.82 2.94 -9.88 2.86 -9.82 2.8 -9.86 2.76 -9.78 196 -42.64zm-196 42.64c16.69,-60.31 79.16,-95.65 139.47,-78.96 60.31,16.69 95.65,79.16 78.96,139.47l-218.43 -60.51zm268.97 251.16l-187.62 -127.2 -0.9 1.37 -1.33 2.17 -1.55 3.15 -1.55 3.99 -1.23 4.23 -0.88 4.42 -0.47 4.62 -0.08 4.7 0.25 3.93 0.47 3.09 0.59 2.64 0.55 1.86 0.41 1.1 0.22 0.53 -0.16 -0.27 -0.53 -0.94 -0.88 -1.45 -1.13 -1.7 -1.51 -2.13 -1.9 -2.56 -2.23 -2.84 -2.5 -3.05 -2.9 -3.4 -3.19 -3.66 -3.25 -3.66 -3.5 -3.86 -3.86 -4.21 -3.87 -4.21 -4.13 -4.48 -4.38 -4.81 -4.32 -4.81 -4.5 -5.09 -4.68 -5.48 173.57 -145.79 2.17 2.54 2.7 3.05 3.15 3.52 3.33 3.64 3.82 4.13 4.15 4.52 4.29 4.68 4.68 5.15 4.89 5.5 4.87 5.62 5.05 5.95 5.28 6.46 5.32 6.79 5.38 7.18 5.42 7.69 5.4 8.24 5.22 8.61 5.11 9.2 4.93 9.94 4.72 10.82 4.25 11.51 3.72 12.35 2.97 13.21 2.07 13.7 1.04 14.66 -0.23 15.46 -1.6 15.42 -2.99 15.3 -4.4 15.19 -5.81 14.99 -7.03 14.19 -7.98 13.25 -0.9 1.37zm0.9 -1.37c-34.36,52.31 -104.63,66.85 -156.94,32.48 -52.31,-34.36 -66.85,-104.63 -32.48,-156.94l189.42 124.46zm-121.74 257.44l-226.68 0 0 0 0.31 -14.83 0.9 -14.62 1.43 -14.36 1.96 -14.3 2.47 -14.15 2.88 -13.78 3.29 -13.6 3.64 -13.33 3.99 -13.17 4.36 -13.09 4.64 -12.82 4.85 -12.5 5.15 -12.47 5.38 -12.27 5.54 -12.02 5.75 -11.88 5.91 -11.74 6.07 -11.57 6.18 -11.41 6.34 -11.35 6.38 -11.02 6.46 -10.98 6.61 -10.94 6.58 -10.63 6.61 -10.51 6.69 -10.49 6.65 -10.23 6.61 -10.08 6.69 -10.1 6.59 -9.82 6.5 -9.65 6.48 -9.59 187.62 127.2 -6.24 9.2 -6.22 9.26 -6.16 9.2 -6.03 9.08 -6.03 9.22 -5.95 9.14 -5.75 9 -5.71 9.1 -5.6 9.06 -5.36 8.83 -5.24 8.9 -5.13 8.9 -4.85 8.65 -4.7 8.67 -4.5 8.59 -4.27 8.45 -4.03 8.36 -3.82 8.26 -3.54 8.04 -3.27 7.93 -3.05 7.85 -2.76 7.61 -2.45 7.34 -2.19 7.26 -1.96 7.1 -1.64 6.83 -1.39 6.65 -1.1 6.28 -0.82 6.09 -0.61 6.03 -0.35 5.73 -0.12 5.48 0 0zm0 0c0,62.58 -50.76,113.34 -113.34,113.34 -62.58,0 -113.34,-50.76 -113.34,-113.34l226.68 0zm83.83 69.33l-1.96 226.64 -0.47 0 -16.28 -0.49 -16.14 -1.12 -15.81 -1.7 -15.56 -2.31 -15.44 -2.95 -15.17 -3.62 -14.87 -4.27 -14.58 -4.95 -14.34 -5.66 -13.87 -6.32 -13.48 -6.99 -13.23 -7.79 -12.6 -8.39 -12.07 -9 -11.57 -9.71 -10.98 -10.31 -10.27 -10.8 -9.69 -11.37 -9.04 -11.98 -8.18 -12.17 -7.49 -12.56 -6.87 -13.07 -6.07 -13.21 -5.36 -13.42 -4.68 -13.78 -3.93 -13.68 -3.29 -13.82 -2.68 -14.13 -2 -14.09 -1.41 -14.03 -0.84 -14.07 -0.29 -14.23 226.68 0 0.1 5.26 0.29 5.07 0.47 4.72 0.63 4.31 0.72 3.84 0.9 3.76 0.96 3.42 1 2.9 1.1 2.74 1.13 2.52 1.12 2.11 1.27 2.11 1.33 2 1.21 1.6 1.39 1.62 1.55 1.64 1.62 1.51 1.78 1.49 2.09 1.57 2.31 1.55 2.47 1.45 2.99 1.55 3.39 1.55 3.7 1.47 4.25 1.43 4.74 1.37 5.22 1.23 5.77 1.12 6.4 0.94 6.93 0.76 7.42 0.49 8.06 0.25 -0.47 0zm0.47 0c62.58,0.78 112.66,52.19 111.87,114.77 -0.78,62.58 -52.19,112.66 -114.77,111.87l2.9 -226.64zm314.88 -288.87l206.25 94.01 0.72 -1.62 -9.18 20.53 -9.53 20.33 -9.9 20.14 -10.27 19.82 -10.59 19.53 -11.04 19.31 -11.43 18.94 -11.84 18.65 -12.29 18.28 -12.68 17.89 -13.21 17.53 -13.66 17.06 -14.15 16.63 -14.7 16.18 -15.22 15.67 -15.79 15.11 -16.32 14.5 -16.95 13.95 -17.55 13.25 -18.08 12.5 -18.71 11.78 -19.33 10.98 -19.92 10.1 -20.51 9.2 -21.06 8.22 -21.62 7.22 -22.11 6.14 -22.58 5.05 -22.99 3.91 -23.33 2.74 -23.72 1.6 -24.03 0.37 1.96 -226.64 12.68 -0.22 12.29 -0.82 11.9 -1.41 11.53 -1.96 11.19 -2.5 10.96 -3.05 10.74 -3.58 10.61 -4.15 10.41 -4.66 10.37 -5.28 10.21 -5.77 10.18 -6.42 10.18 -7.03 10 -7.57 9.94 -8.16 9.94 -8.86 9.8 -9.39 9.75 -10.04 9.65 -10.59 9.53 -11.23 9.47 -11.82 9.26 -12.33 9.2 -12.92 9 -13.42 8.86 -13.95 8.69 -14.44 8.49 -14.85 8.36 -15.38 8.16 -15.79 7.94 -16.14 7.77 -16.57 7.57 -16.93 0.72 -1.62zm-0.72 1.62c25.05,-57.34 91.89,-83.52 149.23,-58.47 57.34,25.05 83.52,91.89 58.47,149.23l-207.7 -90.76zm149.25 57.36l-205.78 -94.99 -0.29 0.63 13.09 -22.23 18 -19.43 21.27 -14.77 20.94 -9.02 18.65 -4.54 16.26 -1.62 14.13 0.23 11.82 1.33 10.51 2 9.94 2.64 8.16 2.7 7.44 2.84 7.59 3.31 6.99 3.42 6.91 3.74 6.16 3.7 6.12 3.91 6.42 4.5 5.62 4.25 6.18 5.07 6.38 5.75 5.67 5.62 5.99 6.5 6.07 7.44 6.16 8.61 6.52 10.86 5.75 12.03 5.15 14.52 3.87 18.47 1.02 20.96 -3.05 23.23 -7.93 23.38 -206.25 -94.01 -6.71 19.82 -2.58 19.47 0.82 17.04 3.01 14.44 3.66 10.41 3.76 7.85 3.97 6.63 3.11 4.38 2.62 3.21 2.11 2.31 1.49 1.47 1.88 1.68 1.37 1.15 0.61 0.45 1.25 0.86 0.76 0.51 0.76 0.45 1.39 0.76 1.51 0.72 2.11 0.92 2 0.76 2.88 0.94 4.81 1.27 5.54 1.06 7.12 0.78 9.71 0.16 12.15 -1.23 14.89 -3.64 17.61 -7.61 18.37 -12.78 15.62 -16.85 11.21 -19.06 -0.29 0.63zm0.29 -0.63c-25.87,56.98 -93.07,82.19 -150.05,56.32 -56.98,-25.87 -82.19,-93.07 -56.32,-150.05l206.37 93.73zm-399.18 337.11l0 -226.68 0 0 1.27 -0.04 1.82 -0.14 2.37 -0.33 2.86 -0.53 3.19 -0.74 3.76 -1.1 4.34 -1.45 4.58 -1.76 4.91 -2.11 5.36 -2.56 5.58 -2.95 5.85 -3.39 6.12 -3.86 6.42 -4.38 6.67 -4.89 6.81 -5.36 7.03 -5.91 7.18 -6.48 7.32 -7.03 7.46 -7.63 7.49 -8.16 7.63 -8.86 7.73 -9.43 7.73 -10.12 7.85 -10.8 7.75 -11.37 7.77 -12.09 7.79 -12.86 7.73 -13.5 7.63 -14.21 7.61 -15.03 7.49 -15.71 205.78 94.99 -9.84 20.64 -10.08 19.92 -10.37 19.29 -10.63 18.59 -10.8 17.83 -11.1 17.26 -11.35 16.61 -11.45 15.81 -11.68 15.24 -11.88 14.6 -12.02 13.91 -12.27 13.33 -12.35 12.64 -12.52 12.03 -12.62 11.37 -12.74 10.76 -12.92 10.18 -12.93 9.47 -13.03 8.88 -13.21 8.32 -13.29 7.69 -13.33 7.03 -13.31 6.4 -13.48 5.83 -13.54 5.17 -13.42 4.5 -13.62 3.91 -13.84 3.29 -13.74 2.56 -13.8 1.86 -13.84 1.15 -13.91 0.39 0 0zm0 0c-62.58,0 -113.34,-50.76 -113.34,-113.34 0,-62.58 50.76,-113.34 113.34,-113.34l0 226.68zm-182.46 -206.84l226.21 14.44 -0.04 0.59 -0.08 1.39 -0.04 1.12 0.02 1.12 0 0.67 0.02 0.2 0.02 0.2 -0.04 -0.31 -0.12 -0.59 -0.22 -0.92 -0.37 -1.35 -0.49 -1.55 -0.74 -1.92 -0.98 -2.23 -1.27 -2.5 -1.49 -2.52 -1.9 -2.84 -2.25 -2.95 -2.35 -2.72 -2.82 -2.82 -3.05 -2.72 -3.13 -2.41 -2.99 -2.02 -3.13 -1.82 -3.29 -1.64 -3.07 -1.27 -2.64 -0.94 -2.33 -0.67 -1.92 -0.43 -1.39 -0.23 -1.25 -0.14 -0.39 -0.04 -0.04 0 0 226.68 -9.98 -0.23 -9.94 -0.67 -10.37 -1.19 -10.12 -1.72 -10.21 -2.27 -10.27 -2.94 -10.2 -3.56 -10.23 -4.29 -10.06 -5.01 -9.55 -5.58 -9.06 -6.09 -8.81 -6.79 -8.41 -7.46 -7.79 -7.87 -6.97 -8.04 -6.56 -8.59 -5.85 -8.79 -5.13 -8.75 -4.56 -8.96 -3.95 -8.96 -3.4 -8.92 -2.84 -8.79 -2.41 -8.79 -1.94 -8.59 -1.57 -8.49 -1.17 -8.41 -0.84 -8.1 -0.57 -8.3 -0.27 -7.98 -0.02 -7.69 0.2 -7.89 0.43 -7.73 -0.04 0.59zm0.04 -0.59c4.31,-62.44 58.43,-109.56 120.88,-105.26 62.44,4.31 109.56,58.43 105.26,120.88l-226.14 -15.62zm152.3 -313.98l178.62 139.56 -0.45 0.57 -5.54 7.03 -5.48 7.08 -5.5 7.18 -5.32 7.06 -5.21 7.03 -5.15 7.08 -5.03 7.06 -4.87 6.97 -4.77 7.01 -4.7 7.01 -4.46 6.85 -4.31 6.81 -4.15 6.71 -4.01 6.73 -3.8 6.56 -3.6 6.5 -3.48 6.46 -3.15 6.12 -2.97 6.07 -2.78 5.95 -2.52 5.73 -2.37 5.67 -2.07 5.34 -1.86 5.17 -1.64 4.97 -1.43 4.74 -1.17 4.34 -0.94 4.05 -0.8 4.01 -0.59 3.56 -0.39 3.05 -0.23 2.97 -226.21 -14.44 1.02 -12.02 1.49 -12.02 1.92 -11.66 2.25 -11.33 2.66 -11.41 3.01 -11.19 3.27 -10.92 3.56 -10.72 3.82 -10.65 4.11 -10.51 4.25 -10.25 4.52 -10.23 4.7 -10.06 4.89 -9.98 5.11 -9.92 5.17 -9.63 5.36 -9.63 5.52 -9.53 5.58 -9.35 5.75 -9.37 5.87 -9.24 5.99 -9.2 5.99 -8.96 6.11 -8.96 6.24 -8.92 6.24 -8.75 6.32 -8.69 6.38 -8.63 6.42 -8.51 6.36 -8.32 6.46 -8.34 6.48 -8.24 -0.45 0.57zm0.45 -0.57c38.84,-49.06 110.15,-57.36 159.21,-18.51 49.06,38.84 57.36,110.15 18.51,159.21l-177.72 -140.7zm-200.28 -270.4l219.72 55.69 -28.32 -106.57 7.55 7.67 8.18 8 8.77 8.36 9.35 8.73 9.76 8.98 10.06 9.18 10.47 9.51 10.74 9.78 10.86 10 10.94 10.21 11.15 10.59 11.08 10.82 11.06 11.13 11.06 11.62 10.84 11.94 10.72 12.5 10.39 12.99 10.1 13.64 9.71 14.44 9.22 15.34 8.55 16.46 7.65 17.51 6.54 18.84 5.05 20.06 3.25 21.39 1 22.46 -1.53 22.84 -4.21 22.99 -6.91 22.6 -9.41 21.62 -11.58 20.35 -13.35 18.83 -178.62 -139.56 1.06 -1.45 -0.04 0.08 -0.61 1.39 -0.72 2.37 -0.53 2.84 -0.2 2.68 0.1 2.35 0.16 1.31 0 0.02 -0.43 -1.15 -1.08 -2.45 -1.82 -3.46 -2.72 -4.5 -3.6 -5.36 -4.54 -6.09 -5.38 -6.73 -6.11 -7.1 -6.93 -7.63 -7.53 -7.91 -8.24 -8.28 -8.73 -8.55 -9.16 -8.71 -9.69 -9 -9.96 -9.18 -10.16 -9.28 -10.43 -9.47 -10.68 -9.73 -10.66 -9.84 -10.72 -9.98 -10.8 -10.27 -10.76 -10.55 -10.61 -10.76 -28.32 -106.57zm28.32 106.57c-43.46,-45.03 -42.21,-116.81 2.82,-160.27 45.03,-43.46 116.81,-42.21 160.27,2.82l-163.08 157.45zm65.63 17.4l-218.5 -60.31 16.34 95.04 -17.55 -27.44 -14.68 -28 -11.62 -28.55 -8.45 -29 -5.07 -29.35 -1.53 -29.31 2.07 -28.82 5.66 -27.96 9.06 -26.5 12.11 -24.54 14.74 -22.25 16.93 -19.78 18.9 -17.32 20.41 -14.68 21.66 -12.03 22.76 -9.39 23.91 -6.73 24.97 -3.84 25.63 -0.63 26.22 2.88 26.55 6.83 26.16 11.21 24.77 15.75 22.27 20.04 18.77 23.6 14.72 26.3 10.45 28.08 6.34 28.92 2.6 29.43 -0.7 29.63 -3.68 30.02 -6.46 30.43 -219.72 -55.69 2.7 -12.66 1.13 -9.24 0.16 -5.91 -0.22 -2.43 0.16 0.67 1.25 3.35 2.78 5.01 4.48 5.64 5.91 5.36 6.69 4.29 6.63 2.88 5.93 1.55 4.85 0.57 3.8 -0.08 3.01 -0.47 2.15 -0.59 1.51 -0.63 1.23 -0.68 1.15 -0.86 1.13 -1.04 0.96 -1.15 0.88 -1.39 0.72 -1.49 0.41 -1.29 0.14 -0.76 -0.04 0.33 0.08 1.72 0.61 3.48 1.6 5.56 3.13 7.65 5.09 9.73 7.57 11.82 16.34 95.04zm-16.34 -95.04c35.83,51.31 23.29,121.97 -28.02,157.8 -51.31,35.83 -121.97,23.29 -157.8,-28.02l185.82 -129.78zm-136.88 492.39l-199.6 -107.43 -1.82 3.54 6.05 -12.33 5.93 -12.15 5.71 -11.82 5.46 -11.43 5.36 -11.37 5.19 -11.13 5.01 -10.86 4.85 -10.74 4.72 -10.53 4.54 -10.39 4.48 -10.39 4.34 -10.25 4.23 -10.14 4.11 -10.1 4.03 -10.1 3.97 -10.12 3.84 -10.06 3.78 -10.08 3.76 -10.29 3.72 -10.35 3.64 -10.43 3.62 -10.59 3.58 -10.68 3.56 -10.94 3.56 -11.11 3.54 -11.29 3.52 -11.58 3.6 -11.98 3.6 -12.17 3.56 -12.35 3.6 -12.82 3.68 -13.19 218.5 60.31 -3.91 14.05 -3.91 13.84 -3.95 13.68 -3.91 13.27 -3.87 12.99 -3.95 12.88 -3.97 12.74 -3.99 12.48 -4.03 12.31 -4.09 12.25 -4.13 12.03 -4.19 11.96 -4.23 11.8 -4.27 11.7 -4.4 11.8 -4.5 11.7 -4.52 11.57 -4.62 11.58 -4.74 11.58 -4.81 11.62 -4.93 11.58 -4.99 11.6 -5.17 11.76 -5.26 11.82 -5.4 11.88 -5.52 12.03 -5.66 12.07 -5.75 12.23 -5.97 12.52 -6.11 12.6 -6.2 12.78 -6.44 13.07 -1.82 3.54zm1.82 -3.54c-27.71,56.12 -95.67,79.16 -151.79,51.45 -56.12,-27.71 -79.16,-95.67 -51.45,-151.79l203.24 100.35zm-141.58 -69.74l201.71 103.44 -2.97 5.38 -12.97 18.28 -16.1 15.73 -17.53 11.96 -16.89 7.98 -16.01 5.03 -14.97 2.78 -13.07 1.06 -11.86 -0.08 -10.82 -0.9 -9.96 -1.51 -9.31 -2.02 -8.43 -2.29 -8.34 -2.72 -7.69 -2.94 -7.42 -3.17 -7.61 -3.7 -7.34 -3.99 -7.24 -4.36 -7.01 -4.7 -7.16 -5.3 -7.12 -5.91 -6.97 -6.48 -7.42 -7.81 -7.34 -9.04 -7.28 -10.66 -6.89 -12.6 -5.93 -14.48 -4.74 -17.81 -2.15 -20.18 1.19 -21.17 5.09 -21.7 8.71 -20.27 199.6 107.43 6.91 -16.09 4.11 -17.47 0.96 -16.87 -1.68 -15.83 -3.56 -13.46 -4.13 -10.14 -4.54 -8.3 -4.34 -6.4 -3.93 -4.85 -3.54 -3.74 -2.7 -2.52 -2.5 -2.07 -2.19 -1.62 -1.8 -1.21 -1.8 -1.08 -1.7 -0.94 -1.82 -0.88 -1.55 -0.67 -1.78 -0.67 -2.43 -0.8 -2.56 -0.68 -3.52 -0.76 -4.29 -0.65 -5.34 -0.43 -6.58 -0.04 -8.06 0.67 -10.23 1.92 -11.66 3.66 -12.93 6.14 -14.01 9.57 -13.09 12.8 -10.47 14.75 -2.97 5.38zm2.97 -5.38c31.53,-54.05 100.93,-72.31 154.98,-40.78 54.05,31.53 72.31,100.93 40.78,154.98l-195.76 -114.2zm1148.91 336.09l93.34 206.53 62.52 -72.91 -8.53 30.12 -8.55 28.92 -8.57 27.77 -8.65 26.65 -8.75 25.6 -8.86 24.58 -9.08 23.66 -9.31 22.68 -9.57 21.84 -9.92 20.98 -10.27 20.12 -10.78 19.43 -11.27 18.65 -11.82 17.83 -12.48 17.14 -13.23 16.38 -13.99 15.56 -14.72 14.64 -15.52 13.74 -16.4 12.78 -16.97 11.57 -17.59 10.43 -18.22 9.3 -18.63 8.06 -18.86 6.85 -19.06 5.69 -19.22 4.64 -19.35 3.64 -19.47 2.74 -19.49 1.9 -19.51 1.15 -19.71 0.51 -2.23 -226.64 12.39 -0.31 11.49 -0.68 10.41 -1 9.45 -1.33 8.55 -1.6 7.71 -1.86 7.01 -2.09 6.3 -2.27 5.71 -2.47 5.34 -2.72 5.22 -3.11 5.15 -3.5 5.05 -3.93 5.3 -4.7 5.52 -5.48 5.69 -6.36 5.95 -7.38 6.22 -8.53 6.46 -9.76 6.65 -10.98 6.79 -12.27 6.95 -13.66 7.1 -14.99 7.18 -16.36 7.28 -17.79 7.36 -19.16 7.46 -20.63 7.53 -22.03 7.59 -23.48 7.71 -24.91 7.77 -26.38 7.91 -27.85 62.52 -72.91zm-62.52 72.91c16.75,-60.29 79.25,-95.59 139.54,-78.84 60.29,16.75 95.59,79.25 78.84,139.54l-218.39 -60.7zm409.36 -448.42l211.54 81.37 -3.03 7.16 -11.45 24.17 -11.51 23.4 -11.58 22.76 -11.74 22.17 -11.82 21.43 -11.94 20.84 -12.15 20.27 -12.31 19.67 -12.45 19.04 -12.68 18.49 -12.9 17.96 -13.15 17.44 -13.37 16.87 -13.6 16.32 -13.84 15.79 -14.13 15.32 -14.4 14.79 -14.62 14.25 -14.95 13.82 -15.26 13.35 -15.46 12.78 -15.71 12.33 -15.99 11.86 -16.24 11.41 -16.5 11 -16.75 10.55 -17.01 10.16 -17.18 9.71 -17.44 9.39 -17.77 9.08 -17.94 8.71 -18.18 8.39 -93.34 -206.53 14.46 -6.71 13.99 -6.79 13.5 -6.89 13.17 -7.08 12.84 -7.28 12.39 -7.38 12.05 -7.61 11.76 -7.79 11.47 -8.08 11.25 -8.34 10.98 -8.61 10.8 -8.94 10.57 -9.24 10.41 -9.63 10.35 -10.1 10.21 -10.49 10.1 -10.94 10.08 -11.49 10 -12.02 9.96 -12.56 9.9 -13.13 9.88 -13.78 9.9 -14.46 9.9 -15.13 9.92 -15.83 9.88 -16.52 9.94 -17.32 9.98 -18.1 9.98 -18.84 10.02 -19.71 10.1 -20.55 10.12 -21.35 -3.03 7.16zm3.03 -7.16c26.42,-56.73 93.85,-81.31 150.58,-54.89 56.73,26.42 81.31,93.85 54.89,150.58l-205.47 -95.69zm147.25 58.04l-207.43 -91.42 0.53 -1.15 12.95 -22.05 17.71 -19.26 20.18 -14.32 19.41 -8.88 17.92 -4.99 16.24 -2.19 13.19 -0.29 12.05 0.82 10.74 1.6 9.26 2 8.94 2.5 8.32 2.8 7.65 3.03 6.89 3.05 6.95 3.4 7.03 3.84 6.48 3.87 6.63 4.32 6.48 4.64 6.46 5.05 6.67 5.77 6.28 5.99 6.69 7.14 6.5 7.89 6.54 9.12 6.54 11 5.85 12.35 5.24 15.17 3.6 17.51 1.13 19.33 -2.29 21.7 -6.09 21.15 -211.54 -81.37 -4.87 16.97 -1.86 17.44 0.86 14.99 2.7 13.13 3.68 10.7 3.74 7.93 3.91 6.58 3.37 4.74 2.94 3.54 2.7 2.92 1.94 1.84 2.02 1.74 1.53 1.21 1.31 0.92 1.27 0.84 1 0.59 1.43 0.78 1.27 0.63 1.25 0.55 2.02 0.8 2.76 0.92 3.5 0.98 3.97 0.86 5.69 0.82 7.2 0.51 8.69 -0.22 12.02 -1.64 14.13 -3.93 16.01 -7.36 17.24 -12.25 15.28 -16.63 11.08 -18.84 0.53 -1.15zm-0.53 1.15c-25.87,56.98 -93.07,82.19 -150.05,56.32 -56.98,-25.87 -82.19,-93.07 -56.32,-150.05l206.37 93.73zm-528.67 286.45l218.39 60.66 -155.22 -133.91 8.63 -3.97 8.57 -4.21 8.36 -4.42 8.36 -4.72 8.36 -5.03 8.39 -5.34 8.26 -5.6 8.18 -5.87 8.22 -6.26 8.24 -6.59 8.12 -6.87 8.14 -7.28 8.18 -7.71 8.12 -8.02 8.06 -8.39 8.08 -8.83 8.1 -9.31 8.12 -9.76 8.04 -10.14 8.04 -10.63 8.04 -11.11 8 -11.58 7.94 -12.03 7.96 -12.6 7.94 -13.09 7.83 -13.54 7.83 -14.11 7.81 -14.68 7.77 -15.2 7.69 -15.73 7.63 -16.28 7.57 -16.85 207.43 91.42 -9.02 20.06 -9.2 19.57 -9.33 19.1 -9.49 18.61 -9.65 18.16 -9.82 17.71 -10.06 17.34 -10.18 16.77 -10.31 16.36 -10.57 15.95 -10.7 15.5 -10.9 15.07 -11.06 14.62 -11.29 14.25 -11.41 13.72 -11.58 13.31 -11.84 12.97 -12.05 12.54 -12.19 12.05 -12.33 11.58 -12.56 11.23 -12.78 10.82 -12.86 10.31 -13.03 9.9 -13.31 9.55 -13.38 9.04 -13.44 8.59 -13.64 8.2 -13.84 7.81 -14.03 7.4 -14.01 6.91 -14.11 6.52 -155.22 -133.91zm155.22 133.91c-57.2,25.4 -124.2,-0.35 -149.6,-57.55 -25.4,-57.2 0.35,-124.2 57.55,-149.6l92.05 207.15zm20.74 -749.73l225.04 -26.97 -3.23 43.48 -7.04 25.69 -6.93 25.32 -6.79 24.85 -6.65 24.4 -12.97 47.67 -12.5 46.1 -12.07 44.66 -11.72 43.29 -11.31 42.03 -11.02 40.86 -10.74 39.74 -10.45 38.77 -10.25 37.85 -10.02 36.97 -4.97 18.26 -4.93 18.12 -4.87 17.85 -4.87 17.81 -4.85 17.63 -4.81 17.46 -4.79 17.36 -4.79 17.3 -218.39 -60.66 4.72 -17.06 4.76 -17.2 4.77 -17.38 4.81 -17.44 4.79 -17.57 4.87 -17.81 4.89 -17.89 4.89 -18.1 10.02 -36.93 10.21 -37.73 10.45 -38.65 10.7 -39.74 11.02 -40.82 11.35 -42.07 11.72 -43.4 12.11 -44.73 12.54 -46.26 13.01 -47.83 6.69 -24.56 6.83 -24.93 6.93 -25.36 7.08 -25.85 -3.23 43.48zm3.23 -43.48c16.56,-60.35 78.94,-95.85 139.29,-79.29 60.35,16.56 95.85,78.94 79.29,139.29l-218.58 -60zm41.84 32.95l-220.3 -53.27 16.44 -37.1 13.84 -17.3 15.01 -14.03 15.2 -10.9 14.97 -8.41 14.36 -6.34 13.72 -4.77 13.37 -3.6 13.03 -2.66 12.52 -1.84 12.03 -1.17 12 -0.65 11.9 -0.16 11.76 0.29 11.45 0.7 11.35 1.1 11.37 1.47 11.27 1.86 11.21 2.23 11.23 2.66 11.04 3.03 11.06 3.5 11.02 4.01 11.1 4.62 11.51 5.5 11.49 6.36 11.6 7.49 12.07 9.22 12.35 11.45 12.29 14.38 11.62 18.18 9.47 22.17 5.64 25.54 -225.04 26.97 3.87 17.71 6.22 14.62 6.89 10.82 6.22 7.34 5.03 4.68 3.58 2.76 2.05 1.35 0.96 0.53 0.12 0.06 -1.12 -0.43 -1.86 -0.68 -2.45 -0.76 -2.97 -0.84 -3.17 -0.74 -3.54 -0.7 -3.72 -0.61 -3.74 -0.49 -3.84 -0.35 -3.66 -0.23 -3.23 -0.1 -2.82 0.04 -2.45 0.14 -1.94 0.2 -0.98 0.12 0.16 -0.04 1.15 -0.31 2.33 -0.82 3.84 -1.72 5.46 -3.09 6.71 -4.83 7.73 -7.26 7.77 -9.75 16.44 -37.1zm-16.44 37.1c-35.18,51.74 -105.71,65.16 -157.45,29.98 -51.74,-35.18 -65.16,-105.71 -29.98,-157.45l187.43 127.47zm-94.09 318.4l-208.99 -87.71 -0.02 0.02 3.7 -8.94 3.72 -9.2 3.66 -9.28 3.62 -9.39 3.58 -9.51 3.54 -9.71 3.56 -9.86 3.48 -9.94 3.48 -10.04 3.4 -10.1 3.39 -10.21 3.37 -10.31 3.29 -10.25 3.25 -10.35 3.21 -10.41 3.15 -10.41 3.11 -10.45 3.07 -10.49 3.05 -10.53 2.97 -10.41 2.9 -10.41 2.88 -10.39 2.8 -10.33 2.8 -10.41 2.72 -10.25 2.66 -10.18 2.62 -10.14 2.56 -10.02 2.49 -9.94 2.47 -9.88 2.39 -9.73 2.35 -9.61 220.3 53.27 -2.47 10.2 -2.54 10.31 -2.58 10.43 -2.68 10.61 -2.72 10.68 -2.78 10.8 -2.86 10.92 -2.92 11 -2.95 11 -3.03 11.19 -3.11 11.21 -3.17 11.31 -3.25 11.35 -3.25 11.31 -3.35 11.35 -3.39 11.43 -3.5 11.51 -3.52 11.43 -3.6 11.49 -3.68 11.51 -3.72 11.41 -3.78 11.39 -3.87 11.43 -3.91 11.37 -3.99 11.31 -4.03 11.23 -4.13 11.23 -4.21 11.19 -4.29 11.15 -4.36 11.04 -4.38 10.84 -4.48 10.86 -0.02 0.02zm0.02 -0.02c-24.21,57.71 -90.64,84.89 -148.35,60.68 -57.71,-24.21 -84.89,-90.64 -60.68,-148.35l209.03 87.67zm-327.77 318.15l0 -226.68 2.74 0.04 -4.81 0.12 -3.62 0.43 -2.41 0.51 -1.27 0.37 -0.31 0.12 0.82 -0.39 1.68 -0.88 2.39 -1.47 3.09 -2.07 3.64 -2.68 4.15 -3.31 4.42 -3.82 4.74 -4.36 5.13 -5.07 5.34 -5.56 5.44 -5.99 5.54 -6.44 5.71 -6.99 5.79 -7.44 5.77 -7.75 5.87 -8.26 5.77 -8.47 5.75 -8.85 5.75 -9.26 5.66 -9.45 5.52 -9.65 5.46 -10.04 5.32 -10.14 5.15 -10.35 5.05 -10.61 4.81 -10.63 4.68 -10.84 208.99 87.71 -6.32 14.72 -6.61 14.58 -6.81 14.29 -7.06 14.19 -7.28 13.93 -7.46 13.64 -7.71 13.52 -7.89 13.21 -8.02 12.86 -8.26 12.72 -8.47 12.43 -8.57 12.05 -8.79 11.82 -8.96 11.47 -9.12 11.17 -9.41 10.94 -9.59 10.57 -9.73 10.14 -9.94 9.76 -10.33 9.57 -10.65 9.14 -10.84 8.67 -11.31 8.32 -11.7 7.83 -12.33 7.42 -12.88 6.83 -13.54 6.22 -14.52 5.52 -15.24 4.56 -16.1 3.44 -17.08 2.11 -17.96 0.47 2.74 0.04zm-2.74 -0.04c-62.56,-1.51 -112.07,-53.48 -110.56,-116.04 1.51,-62.56 53.48,-112.07 116.04,-110.56l-5.48 226.6zm-134.55 -274.92l220.46 52.6 -0.14 0.59 -1.51 6.28 -1.45 6.22 -1.33 5.89 -1.19 5.62 -1.1 5.32 -0.92 4.83 -0.8 4.58 -0.68 4.36 -0.55 3.93 -0.39 3.27 -0.25 2.72 -0.16 2.29 -0.08 1.7 0 0.96 0 0.18 -0.04 -0.49 -0.22 -1.6 -0.51 -2.64 -0.98 -3.74 -1.55 -4.54 -2.39 -5.48 -3.56 -6.5 -4.52 -6.59 -5.97 -6.95 -7.1 -6.63 -7.57 -5.54 -8.18 -4.68 -7.91 -3.4 -7.16 -2.23 -6.32 -1.33 -4.91 -0.57 -3.74 -0.16 0 226.68 -13.21 -0.51 -13.72 -1.59 -14.5 -3.01 -14.68 -4.58 -14.75 -6.34 -14.48 -8.28 -13.25 -9.73 -12.23 -11.37 -10.51 -12.31 -8.55 -12.47 -7.08 -12.95 -5.36 -12.41 -4.09 -12.02 -3.01 -11.68 -2.11 -11.1 -1.35 -10.49 -0.78 -9.8 -0.35 -9.61 0.04 -9.22 0.31 -8.9 0.59 -8.67 0.8 -8.59 1.02 -8.43 1.13 -8.08 1.27 -8 1.39 -8.06 1.55 -8.12 1.6 -7.91 1.7 -7.89 1.76 -7.81 1.8 -7.75 1.9 -7.89 -0.14 0.59zm0.14 -0.59c14.83,-60.8 76.18,-98.04 136.98,-83.21 60.8,14.83 98.04,76.18 83.21,136.98l-220.19 -53.77zm106.08 -388.93l224.53 -31 -1.96 41.52 -2.82 11.8 -2.9 12.09 -2.97 12.23 -3.01 12.33 -3.11 12.52 -3.15 12.72 -3.25 12.93 -3.27 12.95 -3.31 13.07 -3.39 13.35 -3.42 13.37 -3.44 13.5 -7.01 27.24 -7.08 27.59 -7.16 27.87 -7.18 28.06 -3.62 14.13 -3.58 14.01 -3.56 14.03 -3.56 14.15 -3.56 14.13 -3.54 14.09 -3.48 13.99 -3.46 13.99 -3.44 14.01 -3.4 13.89 -3.33 13.78 -3.31 13.76 -220.46 -52.6 3.39 -14.23 3.48 -14.32 3.48 -14.29 3.52 -14.29 3.54 -14.34 3.6 -14.38 3.58 -14.32 3.6 -14.29 3.6 -14.27 3.64 -14.38 3.66 -14.32 3.62 -14.13 7.22 -28.22 7.2 -27.94 7.08 -27.55 6.97 -27.12 3.4 -13.35 3.39 -13.25 3.31 -12.99 3.27 -12.95 3.23 -12.76 3.13 -12.5 3.07 -12.33 2.99 -12.17 2.94 -11.98 2.86 -11.68 2.74 -11.43 2.66 -11.25 -1.96 41.52zm1.96 -41.52c14.36,-60.92 75.42,-98.65 136.33,-84.28 60.92,14.36 98.65,75.42 84.28,136.33l-220.62 -52.05zm47.08 32.07l-221.99 -45.91 8.75 -25.95 12.97 -21.64 14.72 -16.97 14.99 -12.9 14.68 -9.75 13.87 -7.32 13.42 -5.66 12.54 -4.27 12.25 -3.37 12.02 -2.6 11.64 -1.96 11.66 -1.47 11.57 -0.98 11.39 -0.55 11.51 -0.14 11.53 0.25 11.37 0.65 11.41 1.04 11.43 1.45 11.51 1.86 11.6 2.37 11.86 2.94 11.82 3.52 11.88 4.19 12.41 5.19 12.66 6.32 12.95 7.73 13.35 9.71 13.38 12.05 13.19 15.24 11.96 18.73 9.51 22.09 5.69 24.54 -224.53 31 3.62 15.58 5.83 13.64 6.87 10.78 6.69 7.81 5.64 5.09 4.42 3.25 2.97 1.78 1.74 0.88 0.59 0.25 -0.72 -0.23 -1.41 -0.43 -1.96 -0.47 -2.68 -0.53 -3.17 -0.53 -3.48 -0.43 -3.7 -0.33 -3.78 -0.22 -3.62 -0.1 -3.48 0.06 -3.37 0.16 -2.88 0.23 -2.35 0.29 -1.86 0.31 -0.82 0.18 0.12 -0.04 1.23 -0.43 3.05 -1.31 4.52 -2.39 6.46 -4.34 8.02 -6.91 9.04 -10.51 8.75 -14.6 8.75 -25.95zm-8.75 25.95c-27,56.46 -94.69,80.35 -151.15,53.34 -56.46,-27 -80.35,-94.69 -53.34,-151.15l204.49 97.8zm-120.66 451.47l-220.26 -53.54 -0.2 0.88 3.87 -16.32 4.01 -16.26 4.09 -16.16 4.19 -16.09 4.25 -15.97 4.31 -15.89 4.34 -15.77 4.42 -15.73 4.44 -15.58 4.44 -15.46 4.48 -15.44 4.5 -15.32 8.9 -30.19 8.86 -29.88 4.34 -14.72 4.31 -14.66 4.27 -14.52 4.17 -14.38 4.13 -14.32 4.01 -14.13 3.91 -14.01 3.82 -13.91 3.72 -13.76 3.56 -13.56 3.46 -13.5 3.33 -13.33 3.17 -13.17 3.01 -13.03 2.86 -12.86 2.7 -12.74 221.99 45.91 -3.17 14.93 -3.33 14.97 -3.48 14.95 -3.6 14.97 -3.72 14.93 -3.82 14.91 -3.95 15.01 -4.03 14.93 -4.09 14.89 -4.19 14.95 -4.25 14.95 -4.29 14.91 -4.32 14.93 -4.38 14.95 -4.38 14.89 -4.42 14.95 -8.83 29.8 -8.83 29.92 -4.34 14.85 -4.32 14.85 -4.29 14.91 -4.25 14.87 -4.15 14.83 -4.11 14.83 -4.03 14.83 -3.93 14.79 -3.84 14.79 -3.74 14.75 -3.62 14.74 -3.52 14.72 -0.2 0.88zm0.2 -0.88c-14.29,60.92 -75.3,98.72 -136.22,84.44 -60.92,-14.29 -98.72,-75.3 -84.44,-136.22l220.66 51.78zm34.13 93.19l-25.05 225.27 5.36 0.47 -17.44 -1.51 -17.22 -2.33 -16.89 -3.17 -16.73 -4.09 -16.44 -5.11 -16.03 -6.05 -15.62 -7.12 -15.07 -8.14 -14.58 -9.28 -13.87 -10.33 -12.88 -11.21 -11.98 -12.05 -11.1 -13.05 -9.9 -13.56 -8.77 -14.01 -7.71 -14.54 -6.59 -14.75 -5.54 -14.91 -4.54 -15.03 -3.58 -14.87 -2.8 -14.97 -2.02 -15.15 -1.23 -14.81 -0.59 -14.75 0.02 -14.89 0.59 -14.58 1.1 -14.62 1.64 -14.68 2.05 -14.5 2.52 -14.56 2.95 -14.54 3.31 -14.42 220.26 53.54 -2.05 8.86 -1.7 8.43 -1.39 8.06 -1.12 7.69 -0.78 7.16 -0.51 6.75 -0.27 6.32 -0.02 5.58 0.23 5.17 0.37 4.6 0.49 3.76 0.61 3.31 0.68 2.86 0.63 2.07 0.57 1.53 0.45 1.06 0.31 0.57 0.23 0.39 0.08 0.14 -0.1 -0.14 0.08 0.08 0.2 0.18 0.25 0.2 0.61 0.39 1.25 0.67 1.8 0.82 2.52 0.96 3.25 1 4.13 1 5.15 0.98 6.03 0.8 6.99 0.61 5.36 0.47zm-5.36 -0.47c62.46,3.95 109.9,57.81 105.94,120.27 -3.95,62.46 -57.81,109.9 -120.27,105.94l14.32 -226.21zm409.12 -46.79l-216.9 -65.83 203.4 94.79 -10.8 16.12 -11 15.6 -11.29 15.15 -11.45 14.52 -11.57 13.87 -11.76 13.4 -12 12.88 -12.19 12.39 -12.39 11.82 -12.45 11.21 -12.6 10.66 -12.8 10.18 -12.93 9.61 -13.11 9.1 -13.23 8.55 -13.35 7.98 -13.44 7.4 -13.46 6.85 -13.6 6.3 -13.7 5.75 -13.87 5.24 -13.91 4.62 -13.8 4.03 -13.93 3.48 -13.85 2.88 -13.95 2.35 -14.05 1.76 -13.84 1.13 -13.89 0.57 -13.76 -0.02 -13.66 -0.61 -13.68 -1.21 25.05 -225.27 3.62 0.31 3.91 0.18 4.09 0.02 4.27 -0.18 4.52 -0.39 4.58 -0.55 4.83 -0.82 5.17 -1.08 5.28 -1.33 5.54 -1.6 5.62 -1.88 5.73 -2.15 6.03 -2.54 6.24 -2.9 6.42 -3.25 6.52 -3.6 6.65 -3.99 6.81 -4.36 6.89 -4.79 7.06 -5.26 7.2 -5.71 7.32 -6.2 7.44 -6.67 7.42 -7.08 7.49 -7.61 7.57 -8.14 7.65 -8.71 7.73 -9.3 7.69 -9.75 7.65 -10.25 7.71 -10.94 7.71 -11.51 203.4 94.79zm-203.4 -94.79c34.17,-52.42 104.4,-67.24 156.82,-33.07 52.42,34.17 67.24,104.4 33.07,156.82l-189.89 -123.75zm58.76 394.66l-69.7 -215.69 -71.54 68.82 1.53 -4.19 1.57 -4.44 1.7 -4.81 1.7 -4.89 1.66 -4.87 1.76 -5.26 1.9 -5.62 1.84 -5.6 1.86 -5.64 1.98 -6.12 2 -6.16 1.96 -6.16 2.07 -6.56 2.09 -6.61 2.13 -6.79 2.15 -6.89 4.42 -14.29 4.56 -14.81 4.68 -15.34 4.83 -15.85 4.93 -16.3 5.11 -16.83 5.22 -17.2 5.32 -17.59 216.9 65.83 -5.32 17.55 -5.22 17.2 -5.07 16.79 -5.01 16.46 -4.87 16.05 -4.79 15.65 -4.68 15.24 -4.58 14.75 -2.27 7.24 -2.21 7.1 -2.21 7.01 -2.15 6.79 -2.19 6.87 -2.15 6.63 -2.05 6.36 -2.13 6.58 -2.11 6.3 -1.98 5.97 -2.04 6.05 -2.09 6.09 -2.02 5.79 -1.94 5.52 -2 5.58 -2 5.48 -71.54 68.82zm71.54 -68.82c-21.55,58.75 -86.67,88.92 -145.41,67.37 -58.75,-21.55 -88.92,-86.67 -67.37,-145.41l212.79 78.04zm-362.61 258.76l-225.04 -27.24 0.06 -0.45 3.54 -22.33 4.97 -21.76 6.32 -21.17 7.67 -20.49 8.85 -19.63 10.02 -18.83 11.02 -17.87 11.9 -16.95 12.72 -16.07 13.37 -15.11 13.97 -14.25 14.5 -13.4 14.89 -12.6 15.36 -11.92 15.58 -11.15 15.85 -10.53 16.14 -9.96 16.26 -9.39 16.46 -8.92 16.67 -8.47 16.69 -8.04 16.81 -7.65 16.89 -7.32 16.89 -6.97 16.85 -6.65 16.91 -6.44 16.87 -6.18 16.73 -5.93 16.63 -5.73 16.46 -5.54 16.36 -5.42 16.2 -5.26 69.7 215.69 -15.26 4.95 -15.19 5.03 -15.17 5.11 -14.91 5.15 -14.74 5.22 -14.44 5.28 -14.17 5.38 -13.91 5.52 -13.56 5.6 -13.13 5.67 -12.74 5.81 -12.31 5.89 -11.7 5.97 -11.25 6.11 -10.74 6.18 -10.04 6.2 -9.47 6.3 -8.85 6.3 -8.04 6.24 -7.46 6.3 -6.75 6.24 -6.07 6.18 -5.46 6.14 -4.77 6.01 -4.23 6.03 -3.7 6.01 -3.17 5.95 -2.78 6.12 -2.35 6.24 -1.98 6.61 -1.6 7.04 -1.19 7.57 0.06 -0.45zm-0.06 0.45c-7.77,62.09 -64.44,106.16 -126.53,98.39 -62.09,-7.77 -106.16,-64.44 -98.39,-126.53l224.92 28.14zm65.71 43.44l2.23 226.64 2.27 -0.04 -14.66 0.16 -14.56 -0.35 -14.4 -0.92 -14.48 -1.47 -14.36 -2.11 -13.97 -2.62 -14.07 -3.27 -13.99 -3.95 -13.68 -4.58 -13.46 -5.24 -13.35 -5.99 -13.05 -6.73 -12.66 -7.4 -12.48 -8.28 -11.9 -8.98 -11.41 -9.67 -10.94 -10.49 -10.27 -11.17 -9.71 -11.96 -8.94 -12.62 -8.08 -13.15 -7.34 -13.82 -6.38 -14.25 -5.42 -14.42 -4.6 -15.03 -3.66 -15.3 -2.72 -15.36 -1.82 -15.5 -0.98 -15.73 -0.1 -15.91 0.72 -15.85 1.53 -15.77 225.04 27.24 -0.47 4.85 -0.22 4.23 0.02 3.58 0.2 3.13 0.33 2.78 0.41 2.33 0.41 1.76 0.45 1.41 0.53 1.39 0.43 0.98 0.37 0.7 0.49 0.78 0.45 0.65 0.51 0.65 0.72 0.76 0.8 0.78 1.12 0.94 1.29 0.96 1.45 0.96 1.94 1.13 2.21 1.13 2.54 1.13 3.01 1.17 3.42 1.13 3.7 1.06 4.13 0.96 4.77 0.9 4.85 0.7 5.24 0.53 5.79 0.37 6.07 0.16 6.4 -0.08 2.27 -0.04zm-2.27 0.04c62.56,-1.86 114.81,47.34 116.67,109.9 1.86,62.56 -47.34,114.81 -109.9,116.67l-6.77 -226.57zm-89.78 -179.58l186.33 129.04 -1.49 2.11 -1 1.45 -0.76 1.17 -0.43 0.78 -0.43 0.84 -0.22 0.43 -0.06 0.16 0.06 -0.22 0.23 -0.72 0.2 -0.86 0.23 -1.29 0.25 -2.09 0.16 -2.7 0 -2.82 -0.27 -3.7 -0.65 -4.38 -1.1 -4.81 -1.76 -5.62 -2.39 -5.77 -3.13 -5.95 -4.23 -6.44 -5.13 -6.3 -5.75 -5.75 -6.58 -5.3 -6.97 -4.5 -7.04 -3.54 -7.04 -2.7 -6.46 -1.78 -5.79 -1.02 -5.15 -0.45 -4.4 -0.02 -3.13 0.22 -2.21 0.33 39.41 223.2 -12.74 1.82 -13.15 0.96 -13.87 -0.06 -14.11 -1.23 -14.21 -2.5 -14.36 -3.93 -14.4 -5.52 -13.85 -6.99 -13.23 -8.53 -12.29 -9.92 -10.92 -10.92 -9.75 -11.98 -8.26 -12.62 -6.61 -12.6 -5.32 -12.86 -4.11 -13.09 -2.86 -12.68 -1.86 -12.64 -0.86 -12.27 -0.04 -11.7 0.7 -11.86 1.43 -11.49 2 -10.96 2.54 -10.68 3.17 -10.74 3.66 -10.39 4.09 -10.1 4.6 -9.94 4.97 -9.61 5.6 -9.71 5.93 -9.31 6.28 -9.04 -1.49 2.11zm1.49 -2.11c36.79,-50.62 107.69,-61.84 158.31,-25.05 50.62,36.79 61.84,107.69 25.05,158.31l-183.36 -133.26zm364.31 -25.52l-220.5 -52.48 157.74 129.13 -5.07 2.39 -5.21 2.5 -5.01 2.45 -5.05 2.58 -5.01 2.6 -5.03 2.7 -5.03 2.76 -4.93 2.78 -4.79 2.76 -4.64 2.74 -4.72 2.9 -4.7 2.94 -4.42 2.84 -4.4 2.92 -4.25 2.88 -3.99 2.82 -4.03 2.92 -3.87 2.86 -3.64 2.82 -3.52 2.8 -3.27 2.68 -3.23 2.76 -2.88 2.5 -2.58 2.41 -2.62 2.5 -2.43 2.43 -1.96 2.04 -1.64 1.82 -1.62 1.88 -1.41 1.72 -1.02 1.31 -0.74 1.04 -186.33 -129.04 5.17 -7.22 5.32 -6.91 5.28 -6.5 5.46 -6.34 5.79 -6.4 5.87 -6.11 5.71 -5.71 5.83 -5.6 6.18 -5.69 6.2 -5.48 6.12 -5.22 6.36 -5.22 6.38 -5.07 6.5 -4.97 6.54 -4.89 6.54 -4.72 6.81 -4.77 6.79 -4.6 6.75 -4.48 6.93 -4.44 6.81 -4.27 6.95 -4.23 7.14 -4.27 7.1 -4.09 7.08 -3.99 7.06 -3.86 7.14 -3.84 7.2 -3.74 7.24 -3.68 7.32 -3.62 7.16 -3.44 7.3 -3.4 157.74 129.13zm-157.74 -129.13c56.81,-26.22 124.16,-1.41 150.38,55.4 26.22,56.81 1.41,124.16 -55.4,150.38l-94.99 -205.78zm125.04 243.67l-212.59 -78.59 -0.04 0.12 0.76 -2.15 0.94 -2.62 0.82 -2.31 0.78 -2.33 0.8 -2.33 0.76 -2.35 0.86 -2.66 0.74 -2.37 0.84 -2.7 0.82 -2.7 0.72 -2.39 0.72 -2.41 0.78 -2.74 0.86 -3.05 0.7 -2.45 0.74 -2.76 0.86 -3.09 0.65 -2.39 0.76 -2.9 0.74 -2.84 1.53 -5.91 1.51 -6.05 1.55 -6.2 1.49 -6.05 1.51 -6.32 1.57 -6.5 220.5 52.48 -1.6 6.77 -1.66 6.91 -1.72 7.06 -1.7 6.83 -1.74 6.91 -1.8 7.01 -0.94 3.54 -0.92 3.52 -1.08 3.99 -0.9 3.25 -0.98 3.58 -1.1 3.86 -0.94 3.25 -1.02 3.52 -1.12 3.86 -1.15 3.84 -1.1 3.52 -1.08 3.48 -1.21 3.82 -1.13 3.48 -1.23 3.8 -1.27 3.78 -1.29 3.78 -1.33 3.76 -1.21 3.44 -1.43 3.87 -0.04 0.12zm0.04 -0.12c-21.62,58.73 -86.79,88.78 -145.51,67.16 -58.73,-21.62 -88.78,-86.79 -67.16,-145.51l212.67 78.35zm-189.82 194.2l-39.41 -223.2 -6.54 1.35 -1.33 0.33 -1.49 0.47 -1.12 0.39 -0.84 0.35 -0.92 0.41 -0.57 0.27 -0.53 0.29 -0.47 0.29 -0.2 0.12 0.23 -0.18 0.2 -0.14 0.25 -0.22 0.63 -0.55 0.63 -0.59 0.8 -0.82 1.04 -1.1 1 -1.13 1.13 -1.41 1.35 -1.72 1.57 -2.13 1.45 -2.05 1.49 -2.31 1.78 -2.84 1.72 -2.92 1.82 -3.27 1.84 -3.5 1.88 -3.74 1.88 -3.97 1.92 -4.32 2.05 -4.79 1.98 -4.93 1.96 -5.13 212.59 78.59 -3.48 9.2 -3.62 8.92 -3.62 8.59 -3.84 8.55 -3.99 8.43 -4.11 8.24 -4.23 7.96 -4.32 7.77 -4.5 7.65 -4.52 7.3 -4.85 7.4 -5.01 7.18 -4.93 6.71 -5.19 6.69 -5.44 6.58 -5.66 6.46 -5.66 6.07 -5.89 5.95 -6.14 5.79 -6.14 5.44 -6.52 5.38 -6.61 5.07 -6.58 4.68 -7.01 4.62 -7.28 4.4 -7.34 4.05 -7.38 3.68 -7.73 3.5 -7.61 3.05 -7.85 2.82 -8.18 2.5 -8.02 2.09 -6.54 1.35zm6.54 -1.35c-60.88,14.48 -122.01,-23.13 -136.49,-84.01 -14.48,-60.88 23.13,-122.01 84.01,-136.49l52.48 220.5z"/>
   <path id="_1_2" class="fil0" d="M3142.96 1430.92c87.94,18.61 152.22,-96.4 116.69,-131.91 -169.13,-91.35 -33.81,-397.48 50.76,-713.77 35.52,-130.25 169.13,-470.21 -109.96,-471.9 -150.52,0 -287.52,142.07 -377.17,263.84 27.06,-143.77 -3.39,-262.16 -157.31,-262.16 -145.45,-1.68 -294.29,140.39 -389,279.09 23.68,-77.8 45.65,-155.61 69.33,-233.41 -3.39,-42.29 -131.93,-64.28 -164.06,-15.22 -204.65,241.87 -559.84,169.13 -612.28,404.25 -27.06,120.07 59.2,230.03 216.51,224.94 45.65,0 59.2,-87.94 30.45,-94.71 -67.67,-15.22 -74.44,-62.58 -62.58,-115.02 28.75,-125.16 236.78,-111.62 372.1,-257.09 -40.6,130.25 -86.26,287.54 -138.7,470.21 -50.74,175.9 -109.94,372.1 -147.14,485.44 6.75,54.11 152.22,55.81 189.42,6.75 23.68,-62.58 111.64,-385.64 167.45,-563.22 93.03,-186.06 275.7,-465.13 387.32,-461.76 91.35,1.7 54.13,147.16 23.68,257.09 -74.42,245.25 -140.37,532.79 -214.8,762.82 0,57.51 162.38,50.74 187.76,8.45 38.9,-98.1 94.71,-363.64 189.42,-652.87 94.71,-179.29 252.02,-373.8 351.8,-375.5 111.64,0 40.6,184.38 5.09,299.38 -125.16,402.55 -231.73,793.27 15.22,886.28zm654.55 -855.83c-191.13,32.13 -389,226.64 -426.22,453.29 -30.45,189.44 64.28,279.09 187.74,277.39 137,-3.37 211.42,-108.23 270.63,-211.42 -20.31,125.16 25.36,202.97 106.55,202.97 159,0 290.93,-162.36 378.87,-346.74 10.16,-20.29 -50.74,-54.13 -59.2,-33.81 -60.9,147.14 -175.9,262.16 -238.48,263.84 -38.9,0 -49.06,-38.9 -30.45,-123.46 15.22,-82.89 45.67,-184.38 64.26,-248.64 -6.75,-35.52 -131.91,-71.03 -162.36,-32.13 -57.51,216.49 -226.64,473.58 -309.54,392.39 -38.88,-38.9 -28.75,-153.91 23.7,-263.84 52.42,-111.64 145.45,-197.9 243.55,-211.44 77.8,-10.14 172.52,13.54 241.87,69.35 27.06,13.54 96.41,-64.26 79.49,-91.33 -94.71,-96.41 -258.78,-115.02 -370.41,-96.41zm492.21 431.31c67.65,-131.93 109.94,-250.34 140.39,-360.28 35.52,42.29 104.85,98.1 65.95,157.31 -67.65,99.78 -140.37,211.42 -140.37,319.67 0,104.85 64.26,180.97 196.2,182.65 197.9,1.7 331.51,-153.91 419.45,-355.19 8.47,-18.59 -49.04,-54.13 -57.49,-35.52 -91.35,197.9 -216.51,270.63 -296,270.63 -54.13,0 -72.74,-37.22 -69.35,-86.28 5.07,-79.49 64.26,-170.81 128.55,-252 84.58,-108.25 -84.58,-214.8 -179.29,-312.9 60.9,-240.19 -274,-147.16 -125.16,65.97 -40.6,147.14 -76.12,236.78 -143.77,373.78 -11.84,22 49.06,52.44 60.9,32.15zm759.42 784.8c174.22,-1.7 250.34,-86.26 338.28,-402.55 175.9,-79.51 290.93,-191.13 405.93,-438.08 8.45,-21.98 -50.74,-54.13 -59.2,-35.52 -87.96,199.58 -194.51,309.54 -316.29,363.64 50.74,-182.65 103.17,-382.25 179.29,-659.64 -5.07,-42.29 -148.84,-65.97 -177.6,-23.68 -25.36,104.87 -60.88,233.41 -104.87,338.28 -57.49,137 -153.91,250.32 -223.26,248.64 -52.42,0 -45.65,-59.2 -27.06,-135.32 35.52,-148.84 79.51,-309.52 108.25,-431.31 -6.77,-49.04 -155.61,-55.81 -174.22,-16.91 -30.43,147.16 -89.64,307.83 -128.55,473.6 -30.43,125.16 -1.68,223.26 131.93,231.71 91.35,10.16 209.74,-42.29 307.83,-192.81 -28.75,94.71 -52.42,174.2 -71.03,224.94 -167.45,54.13 -348.42,121.78 -368.73,284.16 -13.52,111.64 65.97,174.22 179.29,170.83zm30.45 -123.48c-57.51,10.16 -71.03,-49.04 -30.45,-104.87 30.45,-43.97 96.41,-87.94 162.38,-118.39 -8.45,35.52 -16.91,69.35 -28.75,101.48 -28.77,77.8 -67.67,113.32 -103.19,121.78z"/>
  </g>
 </g>
</svg>
